  0
SECTION
  2
ENTITIES
999
DXF created from EnergyPlus
999
Program Version,EnergyPlus, Version 8.9.0-30f4ebd739, YMD=2018.05.22 11:03
999
Polygon Action,TRIANGULATE3DFACE
999
Color Scheme,Default
999
Text - True North
  0
TEXT
  8
1
  6
Continuous
 62
  3
 10
      -85.27123
 20
     -100.28661
 30
        0.10000
 40
 .25
  1
True North
 41
 0.0
  7
MONOTXT
210
0.0
220
0.0
230
1.0
999
Text - Building Title
  0
TEXT
  8
1
  6
Continuous
 62
  3
 10
      -88.27123
 20
     -104.28661
 30
        0.10000
 40
 .4
  1
Building - Building
 41
 0.0
  7
MONOTXT
210
0.0
220
0.0
230
1.0
999
North Arrow Stem
  0
3DFACE
  8
1
 62
  3
 10
      -84.27123
 20
     -100.28661
 30
        0.10000
 11
      -84.27123
 21
     -100.28661
 31
        0.00000
 12
      -84.27123
 22
     -103.28661
 32
        0.00000
 13
      -84.27123
 23
     -103.28661
 33
        0.10000
999
North Arrow Head 1
  0
3DFACE
  8
1
 62
  3
 10
      -84.27123
 20
     -100.28661
 30
        0.10000
 11
      -84.27123
 21
     -100.28661
 31
        0.00000
 12
      -84.77123
 22
     -101.15264
 32
        0.00000
 13
      -84.77123
 23
     -101.15264
 33
        0.10000
999
North Arrow Head 2
  0
3DFACE
  8
1
 62
  3
 10
      -84.27123
 20
     -100.28661
 30
        0.10000
 11
      -84.27123
 21
     -100.28661
 31
        0.00000
 12
      -83.77123
 22
     -101.15264
 32
        0.00000
 13
      -83.77123
 23
     -101.15264
 33
        0.10000
999
North Arrow Side 1
  0
3DFACE
  8
1
 62
  3
 10
      -84.77123
 20
      -98.78661
 30
        0.10000
 11
      -84.77123
 21
      -98.78661
 31
        0.00000
 12
      -84.77123
 22
      -99.78661
 32
        0.00000
 13
      -84.77123
 23
      -99.78661
 33
        0.10000
999
North Arrow Side 2
  0
3DFACE
  8
1
 62
  3
 10
      -84.77123
 20
      -98.78661
 30
        0.10000
 11
      -84.77123
 21
      -98.78661
 31
        0.00000
 12
      -83.77123
 22
      -99.78661
 32
        0.00000
 13
      -83.77123
 23
      -99.78661
 33
        0.10000
999
North Arrow Side 3
  0
3DFACE
  8
1
 62
  3
 10
      -83.77123
 20
      -98.78661
 30
        0.10000
 11
      -83.77123
 21
      -98.78661
 31
        0.00000
 12
      -83.77123
 22
      -99.78661
 32
        0.00000
 13
      -83.77123
 23
      -99.78661
 33
        0.10000
999
Zone Names
999
Zone=1:02PLENUM_VOID
999
Zone=2:02FFE_OFFICEXNEXLED
999
Zone=3:02FFE_OFFICEXE
999
Zone=4:02FFE_OFFICEXMEETXSE
999
Zone=5:02FFE_OFFICEXMEETXSSE
999
Zone=6:02FFE_OFFICEXMEETXSSEXLED
999
Zone=7:02FFE_OFFICEXNE
999
Zone=8:02FFE_OFFICEXN
999
Zone=9:02FFE_OFFICEXMEETXSEXLED
999
Fixed Shading:INOVO - 03-05_A - SURFACE 1 (51)
  0
3DFACE
  8
Fixed Shading
 62
  9
 10
       10.25650
 20
       14.73958
 30
       25.19500
 11
      -11.00738
 21
        7.83446
 31
       25.19500
 12
       12.50489
 22
        7.83446
 32
       25.19500
 13
       12.50489
 23
        7.83446
 33
       25.19500
999
Fixed Shading:Mir-INOVO - 03-05_A - SURFACE 1 (51)
  0
3DFACE
  8
Fixed Shading
 62
  9
 10
       12.50489
 20
        7.83446
 30
       25.19500
 11
      -11.00738
 21
        7.83446
 31
       25.19500
 12
       10.25650
 22
       14.73958
 32
       25.19500
 13
       10.25650
 23
       14.73958
 33
       25.19500
999
Fixed Shading:INOVO - 03-05_A - SURFACE 2 (52)
  0
3DFACE
  8
Fixed Shading
 62
  9
 10
      -12.41738
 20
        7.83446
 30
       25.19500
 11
      -12.41738
 21
      -16.43837
 31
       25.19500
 12
       20.40841
 22
      -16.43837
 32
       25.19500
 13
       12.50489
 23
        7.83446
 33
       25.19500
999
Fixed Shading:Mir-INOVO - 03-05_A - SURFACE 2 (52)
  0
3DFACE
  8
Fixed Shading
 62
  9
 10
       12.50489
 20
        7.83446
 30
       25.19500
 11
       20.40841
 21
      -16.43837
 31
       25.19500
 12
      -12.41738
 22
      -16.43837
 32
       25.19500
 13
      -12.41738
 23
        7.83446
 33
       25.19500
999
Fixed Shading:INOVO - 03-05_A - SURFACE 3 (53)
  0
3DFACE
  8
Fixed Shading
 62
  9
 10
      -19.96518
 20
        8.73446
 30
       25.19500
 11
      -28.15903
 21
      -16.43837
 31
       25.19500
 12
      -12.41738
 22
      -16.43837
 32
       25.19500
 13
      -12.41738
 23
        8.73446
 33
       25.19500
999
Fixed Shading:Mir-INOVO - 03-05_A - SURFACE 3 (53)
  0
3DFACE
  8
Fixed Shading
 62
  9
 10
      -12.41738
 20
        8.73446
 30
       25.19500
 11
      -12.41738
 21
      -16.43837
 31
       25.19500
 12
      -28.15903
 22
      -16.43837
 32
       25.19500
 13
      -19.96518
 23
        8.73446
 33
       25.19500
999
Fixed Shading:INOVO - 03-05_A - SURFACE 4 (54)
  0
3DFACE
  8
Fixed Shading
 62
  9
 10
      -11.00738
 20
        7.83446
 30
       25.19500
 11
      -11.00738
 21
        7.83446
 31
       12.71500
 12
      -12.41738
 22
        7.83446
 32
       12.71500
 13
      -12.41738
 23
        7.83446
 33
       25.19500
999
Fixed Shading:Mir-INOVO - 03-05_A - SURFACE 4 (54)
  0
3DFACE
  8
Fixed Shading
 62
  9
 10
      -12.41738
 20
        7.83446
 30
       25.19500
 11
      -12.41738
 21
        7.83446
 31
       12.71500
 12
      -11.00738
 22
        7.83446
 32
       12.71500
 13
      -11.00738
 23
        7.83446
 33
       25.19500
999
Fixed Shading:INOVO - 03-05_A - SURFACE 5 (55)
  0
3DFACE
  8
Fixed Shading
 62
  9
 10
       10.25650
 20
       14.73958
 30
       25.19500
 11
       10.25650
 21
       14.73958
 31
       12.71500
 12
      -11.00738
 22
        7.83446
 32
       12.71500
 13
      -11.00738
 23
        7.83446
 33
       25.19500
999
Fixed Shading:Mir-INOVO - 03-05_A - SURFACE 5 (55)
  0
3DFACE
  8
Fixed Shading
 62
  9
 10
      -11.00738
 20
        7.83446
 30
       25.19500
 11
      -11.00738
 21
        7.83446
 31
       12.71500
 12
       10.25650
 22
       14.73958
 32
       12.71500
 13
       10.25650
 23
       14.73958
 33
       25.19500
999
Fixed Shading:INOVO - 03-05_A - SURFACE 6 (56)
  0
3DFACE
  8
Fixed Shading
 62
  9
 10
      -12.41738
 20
        7.83446
 30
       25.19500
 11
      -12.41738
 21
        7.83446
 31
       12.71500
 12
      -12.41738
 22
        8.73446
 32
       12.71500
 13
      -12.41738
 23
        8.73446
 33
       25.19500
999
Fixed Shading:Mir-INOVO - 03-05_A - SURFACE 6 (56)
  0
3DFACE
  8
Fixed Shading
 62
  9
 10
      -12.41738
 20
        8.73446
 30
       25.19500
 11
      -12.41738
 21
        8.73446
 31
       12.71500
 12
      -12.41738
 22
        7.83446
 32
       12.71500
 13
      -12.41738
 23
        7.83446
 33
       25.19500
999
Fixed Shading:INOVO - 03-05_A - SURFACE 7 (57)
  0
3DFACE
  8
Fixed Shading
 62
  9
 10
      -12.41738
 20
        8.73446
 30
       25.19500
 11
      -12.41738
 21
        8.73446
 31
       12.71500
 12
      -19.96518
 22
        8.73446
 32
       12.71500
 13
      -19.96518
 23
        8.73446
 33
       25.19500
999
Fixed Shading:Mir-INOVO - 03-05_A - SURFACE 7 (57)
  0
3DFACE
  8
Fixed Shading
 62
  9
 10
      -19.96518
 20
        8.73446
 30
       25.19500
 11
      -19.96518
 21
        8.73446
 31
       12.71500
 12
      -12.41738
 22
        8.73446
 32
       12.71500
 13
      -12.41738
 23
        8.73446
 33
       25.19500
999
Fixed Shading:INOVO - 03-05_A - SURFACE 8 (58)
  0
3DFACE
  8
Fixed Shading
 62
  9
 10
      -19.96518
 20
        8.73446
 30
       25.19500
 11
      -19.96518
 21
        8.73446
 31
       12.71500
 12
      -28.15903
 22
      -16.43837
 32
       12.71500
 13
      -28.15903
 23
      -16.43837
 33
       25.19500
999
Fixed Shading:Mir-INOVO - 03-05_A - SURFACE 8 (58)
  0
3DFACE
  8
Fixed Shading
 62
  9
 10
      -28.15903
 20
      -16.43837
 30
       25.19500
 11
      -28.15903
 21
      -16.43837
 31
       12.71500
 12
      -19.96518
 22
        8.73446
 32
       12.71500
 13
      -19.96518
 23
        8.73446
 33
       25.19500
999
Fixed Shading:INOVO - 03-05_A - SURFACE 9 (59)
  0
3DFACE
  8
Fixed Shading
 62
  9
 10
      -28.15903
 20
      -16.43837
 30
       25.19500
 11
      -28.15903
 21
      -16.43837
 31
       12.71500
 12
       20.40841
 22
      -16.43837
 32
       12.71500
 13
       20.40841
 23
      -16.43837
 33
       25.19500
999
Fixed Shading:Mir-INOVO - 03-05_A - SURFACE 9 (59)
  0
3DFACE
  8
Fixed Shading
 62
  9
 10
       20.40841
 20
      -16.43837
 30
       25.19500
 11
       20.40841
 21
      -16.43837
 31
       12.71500
 12
      -28.15903
 22
      -16.43837
 32
       12.71500
 13
      -28.15903
 23
      -16.43837
 33
       25.19500
999
Fixed Shading:INOVO - 03-05_A - SURFACE 10 (60)
  0
3DFACE
  8
Fixed Shading
 62
  9
 10
       20.40841
 20
      -16.43837
 30
       25.19500
 11
       20.40841
 21
      -16.43837
 31
       12.71500
 12
       10.25650
 22
       14.73958
 32
       12.71500
 13
       10.25650
 23
       14.73958
 33
       25.19500
999
Fixed Shading:Mir-INOVO - 03-05_A - SURFACE 10 (60)
  0
3DFACE
  8
Fixed Shading
 62
  9
 10
       10.25650
 20
       14.73958
 30
       25.19500
 11
       10.25650
 21
       14.73958
 31
       12.71500
 12
       20.40841
 22
      -16.43837
 32
       12.71500
 13
       20.40841
 23
      -16.43837
 33
       25.19500
999
Fixed Shading:INOVO - 03-05_A - SURFACE 11 (61)
  0
3DFACE
  8
Fixed Shading
 62
  9
 10
       10.25650
 20
       14.73958
 30
       12.71500
 11
       12.50489
 21
        7.83446
 31
       12.71500
 12
      -11.00738
 22
        7.83446
 32
       12.71500
 13
      -11.00738
 23
        7.83446
 33
       12.71500
999
Fixed Shading:Mir-INOVO - 03-05_A - SURFACE 11 (61)
  0
3DFACE
  8
Fixed Shading
 62
  9
 10
      -11.00738
 20
        7.83446
 30
       12.71500
 11
       12.50489
 21
        7.83446
 31
       12.71500
 12
       10.25650
 22
       14.73958
 32
       12.71500
 13
       10.25650
 23
       14.73958
 33
       12.71500
999
Fixed Shading:INOVO - 03-05_A - SURFACE 12 (62)
  0
3DFACE
  8
Fixed Shading
 62
  9
 10
      -12.41738
 20
        8.73446
 30
       12.71500
 11
      -12.41738
 21
        7.83446
 31
       12.71500
 12
      -20.25813
 22
        7.83446
 32
       12.71500
 13
      -19.96518
 23
        8.73446
 33
       12.71500
999
Fixed Shading:Mir-INOVO - 03-05_A - SURFACE 12 (62)
  0
3DFACE
  8
Fixed Shading
 62
  9
 10
      -19.96518
 20
        8.73446
 30
       12.71500
 11
      -20.25813
 21
        7.83446
 31
       12.71500
 12
      -12.41738
 22
        7.83446
 32
       12.71500
 13
      -12.41738
 23
        8.73446
 33
       12.71500
999
Fixed Shading:INOVO - 03-05_A - SURFACE 13 (63)
  0
3DFACE
  8
Fixed Shading
 62
  9
 10
       12.50489
 20
        7.83446
 30
       12.71500
 11
       20.40841
 21
      -16.43837
 31
       12.71500
 12
      -28.15903
 22
      -16.43837
 32
       12.71500
 13
      -20.25813
 23
        7.83446
 33
       12.71500
999
Fixed Shading:Mir-INOVO - 03-05_A - SURFACE 13 (63)
  0
3DFACE
  8
Fixed Shading
 62
  9
 10
      -20.25813
 20
        7.83446
 30
       12.71500
 11
      -28.15903
 21
      -16.43837
 31
       12.71500
 12
       20.40841
 22
      -16.43837
 32
       12.71500
 13
       12.50489
 23
        7.83446
 33
       12.71500
999
Fixed Shading:INOVO - 00BASEMENT - SURFACE 1 (64)
  0
3DFACE
  8
Fixed Shading
 62
  9
 10
       16.85279
 20
       16.88163
 30
       -0.03500
 11
       21.57097
 21
        2.28246
 31
       -0.03500
 12
       15.00294
 22
        0.07564
 32
       -0.03500
 13
       10.20818
 23
       14.72390
 33
       -0.03500
999
Fixed Shading:Mir-INOVO - 00BASEMENT - SURFACE 1 (64)
  0
3DFACE
  8
Fixed Shading
 62
  9
 10
       10.20818
 20
       14.72390
 30
       -0.03500
 11
       15.00294
 21
        0.07564
 31
       -0.03500
 12
       21.57097
 22
        2.28246
 32
       -0.03500
 13
       16.85279
 23
       16.88163
 33
       -0.03500
999
Fixed Shading:INOVO - 00BASEMENT - SURFACE 2 (65)
  0
3DFACE
  8
Fixed Shading
 62
  9
 10
      -20.25814
 20
        7.83446
 30
       -0.03500
 11
      -11.00739
 21
        7.83446
 31
       -0.03500
 12
      -21.35154
 22
        4.47535
 32
       -0.03500
 13
      -21.35154
 23
        4.47535
 33
       -0.03500
999
Fixed Shading:Mir-INOVO - 00BASEMENT - SURFACE 2 (65)
  0
3DFACE
  8
Fixed Shading
 62
  9
 10
      -21.35154
 20
        4.47535
 30
       -0.03500
 11
      -11.00739
 21
        7.83446
 31
       -0.03500
 12
      -20.25814
 22
        7.83446
 32
       -0.03500
 13
      -20.25814
 23
        7.83446
 33
       -0.03500
999
Fixed Shading:INOVO - 00BASEMENT - SURFACE 3 (66)
  0
3DFACE
  8
Fixed Shading
 62
  9
 10
       10.20818
 20
       14.72390
 30
       -0.03500
 11
       20.40840
 21
      -16.43837
 31
       -0.03500
 12
      -28.15903
 22
      -16.43837
 32
       -0.03500
 13
      -21.35154
 23
        4.47535
 33
       -0.03500
999
Fixed Shading:Mir-INOVO - 00BASEMENT - SURFACE 3 (66)
  0
3DFACE
  8
Fixed Shading
 62
  9
 10
      -21.35154
 20
        4.47535
 30
       -0.03500
 11
      -28.15903
 21
      -16.43837
 31
       -0.03500
 12
       20.40840
 22
      -16.43837
 32
       -0.03500
 13
       10.20818
 23
       14.72390
 33
       -0.03500
999
Fixed Shading:INOVO - 00BASEMENT - SURFACE 4 (67)
  0
3DFACE
  8
Fixed Shading
 62
  9
 10
       16.85279
 20
       16.88163
 30
        3.53500
 11
      -11.00739
 21
        7.83446
 31
        3.53500
 12
       19.77667
 22
        7.83446
 32
        3.53500
 13
       19.77667
 23
        7.83446
 33
        3.53500
999
Fixed Shading:Mir-INOVO - 00BASEMENT - SURFACE 4 (67)
  0
3DFACE
  8
Fixed Shading
 62
  9
 10
       19.77667
 20
        7.83446
 30
        3.53500
 11
      -11.00739
 21
        7.83446
 31
        3.53500
 12
       16.85279
 22
       16.88163
 32
        3.53500
 13
       16.85279
 23
       16.88163
 33
        3.53500
999
Fixed Shading:INOVO - 00BASEMENT - SURFACE 5 (68)
  0
3DFACE
  8
Fixed Shading
 62
  9
 10
      -27.42375
 20
      -14.17947
 30
        3.53500
 11
      -28.15903
 21
      -16.43837
 31
        3.53500
 12
       20.40840
 22
      -16.43837
 32
        3.53500
 13
       15.00294
 23
        0.07564
 33
        3.53500
999
Fixed Shading:Mir-INOVO - 00BASEMENT - SURFACE 5 (68)
  0
3DFACE
  8
Fixed Shading
 62
  9
 10
       15.00294
 20
        0.07564
 30
        3.53500
 11
       20.40840
 21
      -16.43837
 31
        3.53500
 12
      -28.15903
 22
      -16.43837
 32
        3.53500
 13
      -27.42375
 23
      -14.17947
 33
        3.53500
999
Fixed Shading:INOVO - 00BASEMENT - SURFACE 6 (69)
  0
3DFACE
  8
Fixed Shading
 62
  9
 10
      -20.25814
 20
        7.83446
 30
        3.53500
 11
      -27.42375
 21
      -14.17947
 31
        3.53500
 12
       21.57097
 22
        2.28246
 32
        3.53500
 13
       19.77667
 23
        7.83446
 33
        3.53500
999
Fixed Shading:Mir-INOVO - 00BASEMENT - SURFACE 6 (69)
  0
3DFACE
  8
Fixed Shading
 62
  9
 10
       19.77667
 20
        7.83446
 30
        3.53500
 11
       21.57097
 21
        2.28246
 31
        3.53500
 12
      -27.42375
 22
      -14.17947
 32
        3.53500
 13
      -20.25814
 23
        7.83446
 33
        3.53500
999
Fixed Shading:INOVO - 00BASEMENT - SURFACE 7 (70)
  0
3DFACE
  8
Fixed Shading
 62
  9
 10
      -20.25814
 20
        7.83446
 30
        3.53500
 11
      -20.25814
 21
        7.83446
 31
       -0.03500
 12
      -28.15903
 22
      -16.43837
 32
       -0.03500
 13
      -28.15903
 23
      -16.43837
 33
        3.53500
999
Fixed Shading:Mir-INOVO - 00BASEMENT - SURFACE 7 (70)
  0
3DFACE
  8
Fixed Shading
 62
  9
 10
      -28.15903
 20
      -16.43837
 30
        3.53500
 11
      -28.15903
 21
      -16.43837
 31
       -0.03500
 12
      -20.25814
 22
        7.83446
 32
       -0.03500
 13
      -20.25814
 23
        7.83446
 33
        3.53500
999
Fixed Shading:INOVO - 00BASEMENT - SURFACE 8 (71)
  0
3DFACE
  8
Fixed Shading
 62
  9
 10
      -11.00739
 20
        7.83446
 30
        3.53500
 11
      -11.00739
 21
        7.83446
 31
       -0.03500
 12
      -20.25814
 22
        7.83446
 32
       -0.03500
 13
      -20.25814
 23
        7.83446
 33
        3.53500
999
Fixed Shading:Mir-INOVO - 00BASEMENT - SURFACE 8 (71)
  0
3DFACE
  8
Fixed Shading
 62
  9
 10
      -20.25814
 20
        7.83446
 30
        3.53500
 11
      -20.25814
 21
        7.83446
 31
       -0.03500
 12
      -11.00739
 22
        7.83446
 32
       -0.03500
 13
      -11.00739
 23
        7.83446
 33
        3.53500
999
Fixed Shading:INOVO - 00BASEMENT - SURFACE 9 (72)
  0
3DFACE
  8
Fixed Shading
 62
  9
 10
       16.85279
 20
       16.88163
 30
        3.53500
 11
       16.85279
 21
       16.88163
 31
       -0.03500
 12
      -11.00739
 22
        7.83446
 32
       -0.03500
 13
      -11.00739
 23
        7.83446
 33
        3.53500
999
Fixed Shading:Mir-INOVO - 00BASEMENT - SURFACE 9 (72)
  0
3DFACE
  8
Fixed Shading
 62
  9
 10
      -11.00739
 20
        7.83446
 30
        3.53500
 11
      -11.00739
 21
        7.83446
 31
       -0.03500
 12
       16.85279
 22
       16.88163
 32
       -0.03500
 13
       16.85279
 23
       16.88163
 33
        3.53500
999
Fixed Shading:INOVO - 00BASEMENT - SURFACE 10 (73)
  0
3DFACE
  8
Fixed Shading
 62
  9
 10
       21.57097
 20
        2.28246
 30
        3.53500
 11
       21.57097
 21
        2.28246
 31
       -0.03500
 12
       16.85279
 22
       16.88163
 32
       -0.03500
 13
       16.85279
 23
       16.88163
 33
        3.53500
999
Fixed Shading:Mir-INOVO - 00BASEMENT - SURFACE 10 (73)
  0
3DFACE
  8
Fixed Shading
 62
  9
 10
       16.85279
 20
       16.88163
 30
        3.53500
 11
       16.85279
 21
       16.88163
 31
       -0.03500
 12
       21.57097
 22
        2.28246
 32
       -0.03500
 13
       21.57097
 23
        2.28246
 33
        3.53500
999
Fixed Shading:INOVO - 00BASEMENT - SURFACE 11 (74)
  0
3DFACE
  8
Fixed Shading
 62
  9
 10
       15.00294
 20
        0.07564
 30
        3.53500
 11
       15.00294
 21
        0.07564
 31
       -0.03500
 12
       21.57097
 22
        2.28246
 32
       -0.03500
 13
       21.57097
 23
        2.28246
 33
        3.53500
999
Fixed Shading:Mir-INOVO - 00BASEMENT - SURFACE 11 (74)
  0
3DFACE
  8
Fixed Shading
 62
  9
 10
       21.57097
 20
        2.28246
 30
        3.53500
 11
       21.57097
 21
        2.28246
 31
       -0.03500
 12
       15.00294
 22
        0.07564
 32
       -0.03500
 13
       15.00294
 23
        0.07564
 33
        3.53500
999
Fixed Shading:INOVO - 00BASEMENT - SURFACE 12 (75)
  0
3DFACE
  8
Fixed Shading
 62
  9
 10
       20.40840
 20
      -16.43837
 30
        3.53500
 11
       20.40840
 21
      -16.43837
 31
       -0.03500
 12
       15.00294
 22
        0.07564
 32
       -0.03500
 13
       15.00294
 23
        0.07564
 33
        3.53500
999
Fixed Shading:Mir-INOVO - 00BASEMENT - SURFACE 12 (75)
  0
3DFACE
  8
Fixed Shading
 62
  9
 10
       15.00294
 20
        0.07564
 30
        3.53500
 11
       15.00294
 21
        0.07564
 31
       -0.03500
 12
       20.40840
 22
      -16.43837
 32
       -0.03500
 13
       20.40840
 23
      -16.43837
 33
        3.53500
999
Fixed Shading:INOVO - 00BASEMENT - SURFACE 13 (76)
  0
3DFACE
  8
Fixed Shading
 62
  9
 10
      -28.15903
 20
      -16.43837
 30
        3.53500
 11
      -28.15903
 21
      -16.43837
 31
       -0.03500
 12
       20.40840
 22
      -16.43837
 32
       -0.03500
 13
       20.40840
 23
      -16.43837
 33
        3.53500
999
Fixed Shading:Mir-INOVO - 00BASEMENT - SURFACE 13 (76)
  0
3DFACE
  8
Fixed Shading
 62
  9
 10
       20.40840
 20
      -16.43837
 30
        3.53500
 11
       20.40840
 21
      -16.43837
 31
       -0.03500
 12
      -28.15903
 22
      -16.43837
 32
       -0.03500
 13
      -28.15903
 23
      -16.43837
 33
        3.53500
999
Fixed Shading:INOVO - 01GROUND - SURFACE 1 (77)
  0
3DFACE
  8
Fixed Shading
 62
  9
 10
      -18.15485
 20
        7.83446
 30
        3.53500
 11
      -11.00739
 21
        7.83446
 31
        3.53500
 12
      -18.99965
 22
        5.23910
 32
        3.53500
 13
      -18.99965
 23
        5.23910
 33
        3.53500
999
Fixed Shading:Mir-INOVO - 01GROUND - SURFACE 1 (77)
  0
3DFACE
  8
Fixed Shading
 62
  9
 10
      -18.99965
 20
        5.23910
 30
        3.53500
 11
      -11.00739
 21
        7.83446
 31
        3.53500
 12
      -18.15485
 22
        7.83446
 32
        3.53500
 13
      -18.15485
 23
        7.83446
 33
        3.53500
999
Fixed Shading:INOVO - 01GROUND - SURFACE 2 (78)
  0
3DFACE
  8
Fixed Shading
 62
  9
 10
      -22.82468
 20
       -6.51200
 30
        3.53500
 11
      -26.05575
 21
      -16.43837
 31
        3.53500
 12
      -28.15903
 22
      -16.43837
 32
        3.53500
 13
      -24.72646
 23
       -5.89296
 33
        3.53500
999
Fixed Shading:Mir-INOVO - 01GROUND - SURFACE 2 (78)
  0
3DFACE
  8
Fixed Shading
 62
  9
 10
      -24.72646
 20
       -5.89296
 30
        3.53500
 11
      -28.15903
 21
      -16.43837
 31
        3.53500
 12
      -26.05575
 22
      -16.43837
 32
        3.53500
 13
      -22.82468
 23
       -6.51200
 33
        3.53500
999
Fixed Shading:INOVO - 01GROUND - SURFACE 3 (79)
  0
3DFACE
  8
Fixed Shading
 62
  9
 10
       10.28028
 20
       14.74728
 30
        3.53500
 11
       20.40840
 21
      -16.43837
 31
        3.53500
 12
      -26.05575
 22
      -16.43837
 32
        3.53500
 13
      -18.99965
 23
        5.23910
 33
        3.53500
999
Fixed Shading:Mir-INOVO - 01GROUND - SURFACE 3 (79)
  0
3DFACE
  8
Fixed Shading
 62
  9
 10
      -18.99965
 20
        5.23910
 30
        3.53500
 11
      -26.05575
 21
      -16.43837
 31
        3.53500
 12
       20.40840
 22
      -16.43837
 32
        3.53500
 13
       10.28028
 23
       14.74728
 33
        3.53500
999
Fixed Shading:INOVO - 01GROUND - SURFACE 4 (80)
  0
3DFACE
  8
Fixed Shading
 62
  9
 10
       10.28028
 20
       14.74728
 30
        8.63500
 11
      -11.00739
 21
        7.83446
 31
        8.63500
 12
       12.52535
 22
        7.83446
 32
        8.63500
 13
       12.52535
 23
        7.83446
 33
        8.63500
999
Fixed Shading:Mir-INOVO - 01GROUND - SURFACE 4 (80)
  0
3DFACE
  8
Fixed Shading
 62
  9
 10
       12.52535
 20
        7.83446
 30
        8.63500
 11
      -11.00739
 21
        7.83446
 31
        8.63500
 12
       10.28028
 22
       14.74728
 32
        8.63500
 13
       10.28028
 23
       14.74728
 33
        8.63500
999
Fixed Shading:INOVO - 01GROUND - SURFACE 5 (81)
  0
3DFACE
  8
Fixed Shading
 62
  9
 10
      -18.15485
 20
        7.83446
 30
        8.63500
 11
      -22.82468
 21
       -6.51200
 31
        8.63500
 12
        7.67071
 22
      -16.43837
 32
        8.63500
 13
        7.67071
 23
      -16.43837
 33
        8.63500
  0
3DFACE
  8
Fixed Shading
 62
  9
 10
      -18.15485
 20
        7.83446
 30
        8.63500
 11
        7.67071
 21
      -16.43837
 31
        8.63500
 12
       20.40840
 22
      -16.43837
 32
        8.63500
 13
       20.40840
 23
      -16.43837
 33
        8.63500
  0
3DFACE
  8
Fixed Shading
 62
  9
 10
      -18.15485
 20
        7.83446
 30
        8.63500
 11
       20.40840
 21
      -16.43837
 31
        8.63500
 12
       12.52535
 22
        7.83446
 32
        8.63500
 13
       12.52535
 23
        7.83446
 33
        8.63500
999
Fixed Shading:Mir-INOVO - 01GROUND - SURFACE 5 (81)
  0
3DFACE
  8
Fixed Shading
 62
  9
 10
       12.52535
 20
        7.83446
 30
        8.63500
 11
       20.40840
 21
      -16.43837
 31
        8.63500
 12
        7.67071
 22
      -16.43837
 32
        8.63500
 13
        7.67071
 23
      -16.43837
 33
        8.63500
  0
3DFACE
  8
Fixed Shading
 62
  9
 10
       12.52535
 20
        7.83446
 30
        8.63500
 11
        7.67071
 21
      -16.43837
 31
        8.63500
 12
      -22.82468
 22
       -6.51200
 32
        8.63500
 13
      -22.82468
 23
       -6.51200
 33
        8.63500
  0
3DFACE
  8
Fixed Shading
 62
  9
 10
       12.52535
 20
        7.83446
 30
        8.63500
 11
      -22.82468
 21
       -6.51200
 31
        8.63500
 12
      -18.15485
 22
        7.83446
 32
        8.63500
 13
      -18.15485
 23
        7.83446
 33
        8.63500
999
Fixed Shading:INOVO - 01GROUND - SURFACE 6 (82)
  0
3DFACE
  8
Fixed Shading
 62
  9
 10
      -24.72646
 20
       -5.89296
 30
        8.63500
 11
      -28.15903
 21
      -16.43837
 31
        8.63500
 12
        7.67071
 22
      -16.43837
 32
        8.63500
 13
        7.67071
 23
      -16.43837
 33
        8.63500
999
Fixed Shading:Mir-INOVO - 01GROUND - SURFACE 6 (82)
  0
3DFACE
  8
Fixed Shading
 62
  9
 10
        7.67071
 20
      -16.43837
 30
        8.63500
 11
      -28.15903
 21
      -16.43837
 31
        8.63500
 12
      -24.72646
 22
       -5.89296
 32
        8.63500
 13
      -24.72646
 23
       -5.89296
 33
        8.63500
999
Fixed Shading:INOVO - 01GROUND - SURFACE 7 (83)
  0
3DFACE
  8
Fixed Shading
 62
  9
 10
      -24.72646
 20
       -5.89296
 30
        8.63500
 11
      -24.72646
 21
       -5.89296
 31
        3.53500
 12
      -28.15903
 22
      -16.43837
 32
        3.53500
 13
      -28.15903
 23
      -16.43837
 33
        8.63500
999
Fixed Shading:Mir-INOVO - 01GROUND - SURFACE 7 (83)
  0
3DFACE
  8
Fixed Shading
 62
  9
 10
      -28.15903
 20
      -16.43837
 30
        8.63500
 11
      -28.15903
 21
      -16.43837
 31
        3.53500
 12
      -24.72646
 22
       -5.89296
 32
        3.53500
 13
      -24.72646
 23
       -5.89296
 33
        8.63500
999
Fixed Shading:INOVO - 01GROUND - SURFACE 8 (84)
  0
3DFACE
  8
Fixed Shading
 62
  9
 10
      -22.82468
 20
       -6.51200
 30
        8.63500
 11
      -22.82468
 21
       -6.51200
 31
        3.53500
 12
      -24.72646
 22
       -5.89296
 32
        3.53500
 13
      -24.72646
 23
       -5.89296
 33
        8.63500
999
Fixed Shading:Mir-INOVO - 01GROUND - SURFACE 8 (84)
  0
3DFACE
  8
Fixed Shading
 62
  9
 10
      -24.72646
 20
       -5.89296
 30
        8.63500
 11
      -24.72646
 21
       -5.89296
 31
        3.53500
 12
      -22.82468
 22
       -6.51200
 32
        3.53500
 13
      -22.82468
 23
       -6.51200
 33
        8.63500
999
Fixed Shading:INOVO - 01GROUND - SURFACE 9 (85)
  0
3DFACE
  8
Fixed Shading
 62
  9
 10
      -18.15485
 20
        7.83446
 30
        8.63500
 11
      -18.15485
 21
        7.83446
 31
        3.53500
 12
      -22.82468
 22
       -6.51200
 32
        3.53500
 13
      -22.82468
 23
       -6.51200
 33
        8.63500
999
Fixed Shading:Mir-INOVO - 01GROUND - SURFACE 9 (85)
  0
3DFACE
  8
Fixed Shading
 62
  9
 10
      -22.82468
 20
       -6.51200
 30
        8.63500
 11
      -22.82468
 21
       -6.51200
 31
        3.53500
 12
      -18.15485
 22
        7.83446
 32
        3.53500
 13
      -18.15485
 23
        7.83446
 33
        8.63500
999
Fixed Shading:INOVO - 01GROUND - SURFACE 10 (86)
  0
3DFACE
  8
Fixed Shading
 62
  9
 10
      -11.00739
 20
        7.83446
 30
        8.63500
 11
      -11.00739
 21
        7.83446
 31
        3.53500
 12
      -18.15485
 22
        7.83446
 32
        3.53500
 13
      -18.15485
 23
        7.83446
 33
        8.63500
999
Fixed Shading:Mir-INOVO - 01GROUND - SURFACE 10 (86)
  0
3DFACE
  8
Fixed Shading
 62
  9
 10
      -18.15485
 20
        7.83446
 30
        8.63500
 11
      -18.15485
 21
        7.83446
 31
        3.53500
 12
      -11.00739
 22
        7.83446
 32
        3.53500
 13
      -11.00739
 23
        7.83446
 33
        8.63500
999
Fixed Shading:INOVO - 01GROUND - SURFACE 11 (87)
  0
3DFACE
  8
Fixed Shading
 62
  9
 10
       10.28028
 20
       14.74728
 30
        8.63500
 11
       10.28028
 21
       14.74728
 31
        3.53500
 12
      -11.00739
 22
        7.83446
 32
        3.53500
 13
      -11.00739
 23
        7.83446
 33
        8.63500
999
Fixed Shading:Mir-INOVO - 01GROUND - SURFACE 11 (87)
  0
3DFACE
  8
Fixed Shading
 62
  9
 10
      -11.00739
 20
        7.83446
 30
        8.63500
 11
      -11.00739
 21
        7.83446
 31
        3.53500
 12
       10.28028
 22
       14.74728
 32
        3.53500
 13
       10.28028
 23
       14.74728
 33
        8.63500
999
Fixed Shading:INOVO - 01GROUND - SURFACE 12 (88)
  0
3DFACE
  8
Fixed Shading
 62
  9
 10
       20.40840
 20
      -16.43837
 30
        8.63500
 11
       20.40840
 21
      -16.43837
 31
        3.53500
 12
       10.28028
 22
       14.74728
 32
        3.53500
 13
       10.28028
 23
       14.74728
 33
        8.63500
999
Fixed Shading:Mir-INOVO - 01GROUND - SURFACE 12 (88)
  0
3DFACE
  8
Fixed Shading
 62
  9
 10
       10.28028
 20
       14.74728
 30
        8.63500
 11
       10.28028
 21
       14.74728
 31
        3.53500
 12
       20.40840
 22
      -16.43837
 32
        3.53500
 13
       20.40840
 23
      -16.43837
 33
        8.63500
999
Fixed Shading:INOVO - 01GROUND - SURFACE 13 (89)
  0
3DFACE
  8
Fixed Shading
 62
  9
 10
      -28.15903
 20
      -16.43837
 30
        8.63500
 11
      -28.15903
 21
      -16.43837
 31
        3.53500
 12
       20.40840
 22
      -16.43837
 32
        3.53500
 13
       20.40840
 23
      -16.43837
 33
        8.63500
999
Fixed Shading:Mir-INOVO - 01GROUND - SURFACE 13 (89)
  0
3DFACE
  8
Fixed Shading
 62
  9
 10
       20.40840
 20
      -16.43837
 30
        8.63500
 11
       20.40840
 21
      -16.43837
 31
        3.53500
 12
      -28.15903
 22
      -16.43837
 32
        3.53500
 13
      -28.15903
 23
      -16.43837
 33
        8.63500
999
Fixed Shading:INOVO - 02FFW - SURFACE 1 (90)
  0
3DFACE
  8
Fixed Shading
 62
  9
 10
      -18.14980
 20
       -6.86407
 30
        8.63500
 11
      -21.29236
 21
      -16.43837
 31
        8.63500
 12
      -28.15903
 22
      -16.43837
 32
        8.63500
 13
      -25.04256
 23
       -6.86407
 33
        8.63500
999
Fixed Shading:Mir-INOVO - 02FFW - SURFACE 1 (90)
  0
3DFACE
  8
Fixed Shading
 62
  9
 10
      -25.04256
 20
       -6.86407
 30
        8.63500
 11
      -28.15903
 21
      -16.43837
 31
        8.63500
 12
      -21.29236
 22
      -16.43837
 32
        8.63500
 13
      -18.14980
 23
       -6.86407
 33
        8.63500
999
Fixed Shading:INOVO - 02FFW - SURFACE 2 (91)
  0
3DFACE
  8
Fixed Shading
 62
  9
 10
      -15.45751
 20
       -4.99232
 30
        8.63500
 11
      -19.21443
 21
      -16.43837
 31
        8.63500
 12
      -21.29236
 22
      -16.43837
 32
        8.63500
 13
      -17.33335
 23
       -4.37662
 33
        8.63500
999
Fixed Shading:Mir-INOVO - 02FFW - SURFACE 2 (91)
  0
3DFACE
  8
Fixed Shading
 62
  9
 10
      -17.33335
 20
       -4.37662
 30
        8.63500
 11
      -21.29236
 21
      -16.43837
 31
        8.63500
 12
      -19.21443
 22
      -16.43837
 32
        8.63500
 13
      -15.45751
 23
       -4.99232
 33
        8.63500
999
Fixed Shading:INOVO - 02FFW - SURFACE 3 (92)
  0
3DFACE
  8
Fixed Shading
 62
  9
 10
      -13.52188
 20
        0.90491
 30
        8.63500
 11
       -1.03925
 21
        0.90491
 31
        8.63500
 12
      -15.19159
 22
       -4.18213
 32
        8.63500
 13
      -15.19159
 23
       -4.18213
 33
        8.63500
999
Fixed Shading:Mir-INOVO - 02FFW - SURFACE 3 (92)
  0
3DFACE
  8
Fixed Shading
 62
  9
 10
      -15.19159
 20
       -4.18213
 30
        8.63500
 11
       -1.03925
 21
        0.90491
 31
        8.63500
 12
      -13.52188
 22
        0.90491
 32
        8.63500
 13
      -13.52188
 23
        0.90491
 33
        8.63500
999
Fixed Shading:INOVO - 02FFW - SURFACE 4 (93)
  0
3DFACE
  8
Fixed Shading
 62
  9
 10
       13.10570
 20
        5.98929
 30
        8.63500
 11
       20.40840
 21
      -16.43837
 31
        8.63500
 12
      -19.21443
 22
      -16.43837
 32
        8.63500
 13
      -15.19159
 23
       -4.18213
 33
        8.63500
999
Fixed Shading:Mir-INOVO - 02FFW - SURFACE 4 (93)
  0
3DFACE
  8
Fixed Shading
 62
  9
 10
      -15.19159
 20
       -4.18213
 30
        8.63500
 11
      -19.21443
 21
      -16.43837
 31
        8.63500
 12
       20.40840
 22
      -16.43837
 32
        8.63500
 13
       13.10570
 23
        5.98929
 33
        8.63500
999
Fixed Shading:INOVO - 02FFW - SURFACE 5 (94)
  0
3DFACE
  8
Fixed Shading
 62
  9
 10
       13.10570
 20
        5.98929
 30
       12.01500
 11
       -1.03925
 21
        0.90491
 31
       12.01500
 12
       14.76123
 22
        0.90491
 32
       12.01500
 13
       14.76123
 23
        0.90491
 33
       12.01500
999
Fixed Shading:Mir-INOVO - 02FFW - SURFACE 5 (94)
  0
3DFACE
  8
Fixed Shading
 62
  9
 10
       14.76123
 20
        0.90491
 30
       12.01500
 11
       -1.03925
 21
        0.90491
 31
       12.01500
 12
       13.10570
 22
        5.98929
 32
       12.01500
 13
       13.10570
 23
        5.98929
 33
       12.01500
999
Fixed Shading:INOVO - 02FFW - SURFACE 6 (95)
  0
3DFACE
  8
Fixed Shading
 62
  9
 10
      -13.52188
 20
        0.90491
 30
       12.01500
 11
      -15.45751
 21
       -4.99232
 31
       12.01500
 12
       -9.75492
 22
       -6.86407
 32
       12.01500
 13
       -9.75492
 23
       -6.86407
 33
       12.01500
  0
3DFACE
  8
Fixed Shading
 62
  9
 10
      -13.52188
 20
        0.90491
 30
       12.01500
 11
       -9.75492
 21
       -6.86407
 31
       12.01500
 12
       17.29090
 22
       -6.86407
 32
       12.01500
 13
       17.29090
 23
       -6.86407
 33
       12.01500
  0
3DFACE
  8
Fixed Shading
 62
  9
 10
      -13.52188
 20
        0.90491
 30
       12.01500
 11
       17.29090
 21
       -6.86407
 31
       12.01500
 12
       14.76123
 22
        0.90491
 32
       12.01500
 13
       14.76123
 23
        0.90491
 33
       12.01500
999
Fixed Shading:Mir-INOVO - 02FFW - SURFACE 6 (95)
  0
3DFACE
  8
Fixed Shading
 62
  9
 10
       14.76123
 20
        0.90491
 30
       12.01500
 11
       17.29090
 21
       -6.86407
 31
       12.01500
 12
       -9.75492
 22
       -6.86407
 32
       12.01500
 13
       -9.75492
 23
       -6.86407
 33
       12.01500
  0
3DFACE
  8
Fixed Shading
 62
  9
 10
       14.76123
 20
        0.90491
 30
       12.01500
 11
       -9.75492
 21
       -6.86407
 31
       12.01500
 12
      -15.45751
 22
       -4.99232
 32
       12.01500
 13
      -15.45751
 23
       -4.99232
 33
       12.01500
  0
3DFACE
  8
Fixed Shading
 62
  9
 10
       14.76123
 20
        0.90491
 30
       12.01500
 11
      -15.45751
 21
       -4.99232
 31
       12.01500
 12
      -13.52188
 22
        0.90491
 32
       12.01500
 13
      -13.52188
 23
        0.90491
 33
       12.01500
999
Fixed Shading:INOVO - 02FFW - SURFACE 7 (96)
  0
3DFACE
  8
Fixed Shading
 62
  9
 10
      -17.33335
 20
       -4.37662
 30
       12.01500
 11
      -18.14980
 21
       -6.86407
 31
       12.01500
 12
       -9.75492
 22
       -6.86407
 32
       12.01500
 13
       -9.75492
 23
       -6.86407
 33
       12.01500
999
Fixed Shading:Mir-INOVO - 02FFW - SURFACE 7 (96)
  0
3DFACE
  8
Fixed Shading
 62
  9
 10
       -9.75492
 20
       -6.86407
 30
       12.01500
 11
      -18.14980
 21
       -6.86407
 31
       12.01500
 12
      -17.33335
 22
       -4.37662
 32
       12.01500
 13
      -17.33335
 23
       -4.37662
 33
       12.01500
999
Fixed Shading:INOVO - 02FFW - SURFACE 8 (97)
  0
3DFACE
  8
Fixed Shading
 62
  9
 10
      -25.04256
 20
       -6.86407
 30
       12.01500
 11
      -28.15903
 21
      -16.43837
 31
       12.01500
 12
       20.40840
 22
      -16.43837
 32
       12.01500
 13
       17.29090
 23
       -6.86407
 33
       12.01500
999
Fixed Shading:Mir-INOVO - 02FFW - SURFACE 8 (97)
  0
3DFACE
  8
Fixed Shading
 62
  9
 10
       17.29090
 20
       -6.86407
 30
       12.01500
 11
       20.40840
 21
      -16.43837
 31
       12.01500
 12
      -28.15903
 22
      -16.43837
 32
       12.01500
 13
      -25.04256
 23
       -6.86407
 33
       12.01500
999
Fixed Shading:INOVO - 02FFW - SURFACE 9 (98)
  0
3DFACE
  8
Fixed Shading
 62
  9
 10
       20.40840
 20
      -16.43837
 30
       12.01500
 11
       20.40840
 21
      -16.43837
 31
        8.63500
 12
       13.10570
 22
        5.98929
 32
        8.63500
 13
       13.10570
 23
        5.98929
 33
       12.01500
999
Fixed Shading:Mir-INOVO - 02FFW - SURFACE 9 (98)
  0
3DFACE
  8
Fixed Shading
 62
  9
 10
       13.10570
 20
        5.98929
 30
       12.01500
 11
       13.10570
 21
        5.98929
 31
        8.63500
 12
       20.40840
 22
      -16.43837
 32
        8.63500
 13
       20.40840
 23
      -16.43837
 33
       12.01500
999
Fixed Shading:INOVO - 02FFW - SURFACE 10 (99)
  0
3DFACE
  8
Fixed Shading
 62
  9
 10
      -28.15903
 20
      -16.43837
 30
       12.01500
 11
      -28.15903
 21
      -16.43837
 31
        8.63500
 12
       20.40840
 22
      -16.43837
 32
        8.63500
 13
       20.40840
 23
      -16.43837
 33
       12.01500
999
Fixed Shading:Mir-INOVO - 02FFW - SURFACE 10 (99)
  0
3DFACE
  8
Fixed Shading
 62
  9
 10
       20.40840
 20
      -16.43837
 30
       12.01500
 11
       20.40840
 21
      -16.43837
 31
        8.63500
 12
      -28.15903
 22
      -16.43837
 32
        8.63500
 13
      -28.15903
 23
      -16.43837
 33
       12.01500
999
Fixed Shading:INOVO - 02FFW - SURFACE 11 (100)
  0
3DFACE
  8
Fixed Shading
 62
  9
 10
      -25.04256
 20
       -6.86407
 30
       12.01500
 11
      -25.04256
 21
       -6.86407
 31
        8.63500
 12
      -28.15903
 22
      -16.43837
 32
        8.63500
 13
      -28.15903
 23
      -16.43837
 33
       12.01500
999
Fixed Shading:Mir-INOVO - 02FFW - SURFACE 11 (100)
  0
3DFACE
  8
Fixed Shading
 62
  9
 10
      -28.15903
 20
      -16.43837
 30
       12.01500
 11
      -28.15903
 21
      -16.43837
 31
        8.63500
 12
      -25.04256
 22
       -6.86407
 32
        8.63500
 13
      -25.04256
 23
       -6.86407
 33
       12.01500
999
Fixed Shading:INOVO - 02FFW - SURFACE 12 (101)
  0
3DFACE
  8
Fixed Shading
 62
  9
 10
      -18.14980
 20
       -6.86407
 30
       12.01500
 11
      -18.14980
 21
       -6.86407
 31
        8.63500
 12
      -25.04256
 22
       -6.86407
 32
        8.63500
 13
      -25.04256
 23
       -6.86407
 33
       12.01500
999
Fixed Shading:Mir-INOVO - 02FFW - SURFACE 12 (101)
  0
3DFACE
  8
Fixed Shading
 62
  9
 10
      -25.04256
 20
       -6.86407
 30
       12.01500
 11
      -25.04256
 21
       -6.86407
 31
        8.63500
 12
      -18.14980
 22
       -6.86407
 32
        8.63500
 13
      -18.14980
 23
       -6.86407
 33
       12.01500
999
Fixed Shading:INOVO - 02FFW - SURFACE 13 (102)
  0
3DFACE
  8
Fixed Shading
 62
  9
 10
      -17.33335
 20
       -4.37662
 30
       12.01500
 11
      -17.33335
 21
       -4.37662
 31
        8.63500
 12
      -18.14980
 22
       -6.86407
 32
        8.63500
 13
      -18.14980
 23
       -6.86407
 33
       12.01500
999
Fixed Shading:Mir-INOVO - 02FFW - SURFACE 13 (102)
  0
3DFACE
  8
Fixed Shading
 62
  9
 10
      -18.14980
 20
       -6.86407
 30
       12.01500
 11
      -18.14980
 21
       -6.86407
 31
        8.63500
 12
      -17.33335
 22
       -4.37662
 32
        8.63500
 13
      -17.33335
 23
       -4.37662
 33
       12.01500
999
Fixed Shading:INOVO - 02FFW - SURFACE 14 (103)
  0
3DFACE
  8
Fixed Shading
 62
  9
 10
      -15.45751
 20
       -4.99232
 30
       12.01500
 11
      -15.45751
 21
       -4.99232
 31
        8.63500
 12
      -17.33335
 22
       -4.37662
 32
        8.63500
 13
      -17.33335
 23
       -4.37662
 33
       12.01500
999
Fixed Shading:Mir-INOVO - 02FFW - SURFACE 14 (103)
  0
3DFACE
  8
Fixed Shading
 62
  9
 10
      -17.33335
 20
       -4.37662
 30
       12.01500
 11
      -17.33335
 21
       -4.37662
 31
        8.63500
 12
      -15.45751
 22
       -4.99232
 32
        8.63500
 13
      -15.45751
 23
       -4.99232
 33
       12.01500
999
Fixed Shading:INOVO - 02FFW - SURFACE 15 (104)
  0
3DFACE
  8
Fixed Shading
 62
  9
 10
      -13.52188
 20
        0.90491
 30
       12.01500
 11
      -13.52188
 21
        0.90491
 31
        8.63500
 12
      -15.45751
 22
       -4.99232
 32
        8.63500
 13
      -15.45751
 23
       -4.99232
 33
       12.01500
999
Fixed Shading:Mir-INOVO - 02FFW - SURFACE 15 (104)
  0
3DFACE
  8
Fixed Shading
 62
  9
 10
      -15.45751
 20
       -4.99232
 30
       12.01500
 11
      -15.45751
 21
       -4.99232
 31
        8.63500
 12
      -13.52188
 22
        0.90491
 32
        8.63500
 13
      -13.52188
 23
        0.90491
 33
       12.01500
999
Fixed Shading:INOVO - 02FFW - SURFACE 16 (105)
  0
3DFACE
  8
Fixed Shading
 62
  9
 10
       -1.03925
 20
        0.90491
 30
       12.01500
 11
       -1.03925
 21
        0.90491
 31
        8.63500
 12
      -13.52188
 22
        0.90491
 32
        8.63500
 13
      -13.52188
 23
        0.90491
 33
       12.01500
999
Fixed Shading:Mir-INOVO - 02FFW - SURFACE 16 (105)
  0
3DFACE
  8
Fixed Shading
 62
  9
 10
      -13.52188
 20
        0.90491
 30
       12.01500
 11
      -13.52188
 21
        0.90491
 31
        8.63500
 12
       -1.03925
 22
        0.90491
 32
        8.63500
 13
       -1.03925
 23
        0.90491
 33
       12.01500
999
Fixed Shading:INOVO - 02FFW - SURFACE 17 (106)
  0
3DFACE
  8
Fixed Shading
 62
  9
 10
       13.10570
 20
        5.98929
 30
       12.01500
 11
       13.10570
 21
        5.98929
 31
        8.63500
 12
       -1.03925
 22
        0.90491
 32
        8.63500
 13
       -1.03925
 23
        0.90491
 33
       12.01500
999
Fixed Shading:Mir-INOVO - 02FFW - SURFACE 17 (106)
  0
3DFACE
  8
Fixed Shading
 62
  9
 10
       -1.03925
 20
        0.90491
 30
       12.01500
 11
       -1.03925
 21
        0.90491
 31
        8.63500
 12
       13.10570
 22
        5.98929
 32
        8.63500
 13
       13.10570
 23
        5.98929
 33
       12.01500
999
Building Shading:SHADING_W - GRAVEN - SURFACE 1 (1)
  0
3DFACE
  8
Building Shading
 62
195
 10
      -74.27123
 20
     -102.01558
 30
       24.00000
 11
      -74.27123
 21
     -102.01558
 31
        0.00000
 12
      -37.87341
 22
     -103.28661
 32
        0.00000
 13
      -37.87341
 23
     -103.28661
 33
       24.00000
999
Building Shading:Mir-SHADING_W - GRAVEN - SURFACE 1 (1)
  0
3DFACE
  8
Building Shading
 62
195
 10
      -37.87341
 20
     -103.28661
 30
       24.00000
 11
      -37.87341
 21
     -103.28661
 31
        0.00000
 12
      -74.27123
 22
     -102.01558
 32
        0.00000
 13
      -74.27123
 23
     -102.01558
 33
       24.00000
999
Building Shading:SHADING_W - GRAVEN - SURFACE 2 (2)
  0
3DFACE
  8
Building Shading
 62
195
 10
      -37.87341
 20
     -103.28661
 30
        0.00000
 11
      -74.27123
 21
     -102.01558
 31
        0.00000
 12
      -69.18707
 22
       43.57568
 32
        0.00000
 13
      -32.78926
 23
       42.30464
 33
        0.00000
999
Building Shading:Mir-SHADING_W - GRAVEN - SURFACE 2 (2)
  0
3DFACE
  8
Building Shading
 62
195
 10
      -32.78926
 20
       42.30464
 30
        0.00000
 11
      -69.18707
 21
       43.57568
 31
        0.00000
 12
      -74.27123
 22
     -102.01558
 32
        0.00000
 13
      -37.87341
 23
     -103.28661
 33
        0.00000
999
Building Shading:SHADING_W - GRAVEN - SURFACE 3 (3)
  0
3DFACE
  8
Building Shading
 62
195
 10
      -69.18707
 20
       43.57568
 30
       24.00000
 11
      -69.18707
 21
       43.57568
 31
        0.00000
 12
      -74.27123
 22
     -102.01558
 32
        0.00000
 13
      -74.27123
 23
     -102.01558
 33
       24.00000
999
Building Shading:Mir-SHADING_W - GRAVEN - SURFACE 3 (3)
  0
3DFACE
  8
Building Shading
 62
195
 10
      -74.27123
 20
     -102.01558
 30
       24.00000
 11
      -74.27123
 21
     -102.01558
 31
        0.00000
 12
      -69.18707
 22
       43.57568
 32
        0.00000
 13
      -69.18707
 23
       43.57568
 33
       24.00000
999
Building Shading:SHADING_W - GRAVEN - SURFACE 4 (4)
  0
3DFACE
  8
Building Shading
 62
195
 10
      -32.78926
 20
       42.30464
 30
       24.00000
 11
      -69.18707
 21
       43.57568
 31
       24.00000
 12
      -74.27123
 22
     -102.01558
 32
       24.00000
 13
      -37.87341
 23
     -103.28661
 33
       24.00000
999
Building Shading:Mir-SHADING_W - GRAVEN - SURFACE 4 (4)
  0
3DFACE
  8
Building Shading
 62
195
 10
      -37.87341
 20
     -103.28661
 30
       24.00000
 11
      -74.27123
 21
     -102.01558
 31
       24.00000
 12
      -69.18707
 22
       43.57568
 32
       24.00000
 13
      -32.78926
 23
       42.30464
 33
       24.00000
999
Building Shading:SHADING_W - GRAVEN - SURFACE 5 (5)
  0
3DFACE
  8
Building Shading
 62
195
 10
      -37.87341
 20
     -103.28661
 30
       24.00000
 11
      -37.87341
 21
     -103.28661
 31
        0.00000
 12
      -32.78926
 22
       42.30464
 32
        0.00000
 13
      -32.78926
 23
       42.30464
 33
       24.00000
999
Building Shading:Mir-SHADING_W - GRAVEN - SURFACE 5 (5)
  0
3DFACE
  8
Building Shading
 62
195
 10
      -32.78926
 20
       42.30464
 30
       24.00000
 11
      -32.78926
 21
       42.30464
 31
        0.00000
 12
      -37.87341
 22
     -103.28661
 32
        0.00000
 13
      -37.87341
 23
     -103.28661
 33
       24.00000
999
Building Shading:SHADING_W - GRAVEN - SURFACE 6 (6)
  0
3DFACE
  8
Building Shading
 62
195
 10
      -32.78926
 20
       42.30464
 30
       24.00000
 11
      -32.78926
 21
       42.30464
 31
        0.00000
 12
      -69.18707
 22
       43.57568
 32
        0.00000
 13
      -69.18707
 23
       43.57568
 33
       24.00000
999
Building Shading:Mir-SHADING_W - GRAVEN - SURFACE 6 (6)
  0
3DFACE
  8
Building Shading
 62
195
 10
      -69.18707
 20
       43.57568
 30
       24.00000
 11
      -69.18707
 21
       43.57568
 31
        0.00000
 12
      -32.78926
 22
       42.30464
 32
        0.00000
 13
      -32.78926
 23
       42.30464
 33
       24.00000
999
Building Shading:SHADING_E - TIC - SURFACE 1 (7)
  0
3DFACE
  8
Building Shading
 62
195
 10
       21.88921
 20
       28.79448
 30
       50.00000
 11
       14.54725
 21
       29.05087
 31
       50.00000
 12
       16.39570
 22
        0.42260
 32
       50.00000
 13
       20.89296
 23
        0.26556
 33
       50.00000
999
Building Shading:Mir-SHADING_E - TIC - SURFACE 1 (7)
  0
3DFACE
  8
Building Shading
 62
195
 10
       20.89296
 20
        0.26556
 30
       50.00000
 11
       16.39570
 21
        0.42260
 31
       50.00000
 12
       14.54725
 22
       29.05087
 32
       50.00000
 13
       21.88921
 23
       28.79448
 33
       50.00000
999
Building Shading:SHADING_E - TIC - SURFACE 2 (8)
  0
3DFACE
  8
Building Shading
 62
195
 10
       93.88533
 20
       26.28032
 30
       50.00000
 11
       21.88921
 21
       28.79448
 31
       50.00000
 12
       19.26560
 22
      -46.33604
 32
       50.00000
 13
       56.24306
 23
      -47.62732
 33
       50.00000
999
Building Shading:Mir-SHADING_E - TIC - SURFACE 2 (8)
  0
3DFACE
  8
Building Shading
 62
195
 10
       56.24306
 20
      -47.62732
 30
       50.00000
 11
       19.26560
 21
      -46.33604
 31
       50.00000
 12
       21.88921
 22
       28.79448
 32
       50.00000
 13
       93.88533
 23
       26.28032
 33
       50.00000
999
Building Shading:SHADING_E - TIC - SURFACE 3 (9)
  0
3DFACE
  8
Building Shading
 62
195
 10
       93.88533
 20
       26.28032
 30
       50.00000
 11
       93.88533
 21
       26.28032
 31
        0.00000
 12
       14.54725
 22
       29.05087
 32
        0.00000
 13
       14.54725
 23
       29.05087
 33
       50.00000
999
Building Shading:Mir-SHADING_E - TIC - SURFACE 3 (9)
  0
3DFACE
  8
Building Shading
 62
195
 10
       14.54725
 20
       29.05087
 30
       50.00000
 11
       14.54725
 21
       29.05087
 31
        0.00000
 12
       93.88533
 22
       26.28032
 32
        0.00000
 13
       93.88533
 23
       26.28032
 33
       50.00000
999
Building Shading:SHADING_E - TIC - SURFACE 4 (10)
  0
3DFACE
  8
Building Shading
 62
195
 10
       14.54725
 20
       29.05087
 30
       50.00000
 11
       14.54725
 21
       29.05087
 31
        0.00000
 12
       16.39570
 22
        0.42260
 32
        0.00000
 13
       16.39570
 23
        0.42260
 33
       50.00000
999
Building Shading:Mir-SHADING_E - TIC - SURFACE 4 (10)
  0
3DFACE
  8
Building Shading
 62
195
 10
       16.39570
 20
        0.42260
 30
       50.00000
 11
       16.39570
 21
        0.42260
 31
        0.00000
 12
       14.54725
 22
       29.05087
 32
        0.00000
 13
       14.54725
 23
       29.05087
 33
       50.00000
999
Building Shading:SHADING_E - TIC - SURFACE 5 (11)
  0
3DFACE
  8
Building Shading
 62
195
 10
       16.39570
 20
        0.42260
 30
       50.00000
 11
       16.39570
 21
        0.42260
 31
        0.00000
 12
       20.89296
 22
        0.26556
 32
        0.00000
 13
       20.89296
 23
        0.26556
 33
       50.00000
999
Building Shading:Mir-SHADING_E - TIC - SURFACE 5 (11)
  0
3DFACE
  8
Building Shading
 62
195
 10
       20.89296
 20
        0.26556
 30
       50.00000
 11
       20.89296
 21
        0.26556
 31
        0.00000
 12
       16.39570
 22
        0.42260
 32
        0.00000
 13
       16.39570
 23
        0.42260
 33
       50.00000
999
Building Shading:SHADING_E - TIC - SURFACE 6 (12)
  0
3DFACE
  8
Building Shading
 62
195
 10
       20.89296
 20
        0.26556
 30
       50.00000
 11
       20.89296
 21
        0.26556
 31
        0.00000
 12
       19.26560
 22
      -46.33604
 32
        0.00000
 13
       19.26560
 23
      -46.33604
 33
       50.00000
999
Building Shading:Mir-SHADING_E - TIC - SURFACE 6 (12)
  0
3DFACE
  8
Building Shading
 62
195
 10
       19.26560
 20
      -46.33604
 30
       50.00000
 11
       19.26560
 21
      -46.33604
 31
        0.00000
 12
       20.89296
 22
        0.26556
 32
        0.00000
 13
       20.89296
 23
        0.26556
 33
       50.00000
999
Building Shading:SHADING_E - TIC - SURFACE 7 (13)
  0
3DFACE
  8
Building Shading
 62
195
 10
       19.26560
 20
      -46.33604
 30
       50.00000
 11
       19.26560
 21
      -46.33604
 31
        0.00000
 12
       56.24306
 22
      -47.62732
 32
        0.00000
 13
       56.24306
 23
      -47.62732
 33
       50.00000
999
Building Shading:Mir-SHADING_E - TIC - SURFACE 7 (13)
  0
3DFACE
  8
Building Shading
 62
195
 10
       56.24306
 20
      -47.62732
 30
       50.00000
 11
       56.24306
 21
      -47.62732
 31
        0.00000
 12
       19.26560
 22
      -46.33604
 32
        0.00000
 13
       19.26560
 23
      -46.33604
 33
       50.00000
999
Building Shading:SHADING_E - TIC - SURFACE 8 (14)
  0
3DFACE
  8
Building Shading
 62
195
 10
       56.24306
 20
      -47.62732
 30
       50.00000
 11
       56.24306
 21
      -47.62732
 31
        0.00000
 12
       93.88533
 22
       26.28032
 32
        0.00000
 13
       93.88533
 23
       26.28032
 33
       50.00000
999
Building Shading:Mir-SHADING_E - TIC - SURFACE 8 (14)
  0
3DFACE
  8
Building Shading
 62
195
 10
       93.88533
 20
       26.28032
 30
       50.00000
 11
       93.88533
 21
       26.28032
 31
        0.00000
 12
       56.24306
 22
      -47.62732
 32
        0.00000
 13
       56.24306
 23
      -47.62732
 33
       50.00000
999
Building Shading:SHADING_E - TIC - SURFACE 9 (15)
  0
3DFACE
  8
Building Shading
 62
195
 10
       56.24306
 20
      -47.62732
 30
        0.00000
 11
       19.26560
 21
      -46.33604
 31
        0.00000
 12
       20.89296
 22
        0.26556
 32
        0.00000
 13
       79.59162
 23
       -1.78425
 33
        0.00000
999
Building Shading:Mir-SHADING_E - TIC - SURFACE 9 (15)
  0
3DFACE
  8
Building Shading
 62
195
 10
       79.59162
 20
       -1.78425
 30
        0.00000
 11
       20.89296
 21
        0.26556
 31
        0.00000
 12
       19.26560
 22
      -46.33604
 32
        0.00000
 13
       56.24306
 23
      -47.62732
 33
        0.00000
999
Building Shading:SHADING_E - TIC - SURFACE 10 (16)
  0
3DFACE
  8
Building Shading
 62
195
 10
       79.59162
 20
       -1.78425
 30
        0.00000
 11
       16.39570
 21
        0.42260
 31
        0.00000
 12
       14.54725
 22
       29.05087
 32
        0.00000
 13
       93.88533
 23
       26.28032
 33
        0.00000
999
Building Shading:Mir-SHADING_E - TIC - SURFACE 10 (16)
  0
3DFACE
  8
Building Shading
 62
195
 10
       93.88533
 20
       26.28032
 30
        0.00000
 11
       14.54725
 21
       29.05087
 31
        0.00000
 12
       16.39570
 22
        0.42260
 32
        0.00000
 13
       79.59162
 23
       -1.78425
 33
        0.00000
999
Building Shading:SHADING_N - ROAD - SURFACE 1 (17)
  0
3DFACE
  8
Building Shading
 62
195
 10
       14.11625
 20
       59.36351
 30
        0.00000
 11
       -6.34881
 21
       60.55980
 31
        0.00000
 12
       -3.72329
 22
      105.52157
 32
        0.00000
 13
       16.23384
 23
      104.82465
 33
        0.00000
999
Building Shading:Mir-SHADING_N - ROAD - SURFACE 1 (17)
  0
3DFACE
  8
Building Shading
 62
195
 10
       16.23384
 20
      104.82465
 30
        0.00000
 11
       -3.72329
 21
      105.52157
 31
        0.00000
 12
       -6.34881
 22
       60.55980
 32
        0.00000
 13
       14.11625
 23
       59.36351
 33
        0.00000
999
Building Shading:SHADING_N - ROAD - SURFACE 2 (18)
  0
3DFACE
  8
Building Shading
 62
195
 10
       16.23384
 20
      104.82465
 30
        3.50000
 11
       16.23384
 21
      104.82465
 31
        0.00000
 12
       -3.72329
 22
      105.52157
 32
        0.00000
 13
       -3.72329
 23
      105.52157
 33
        3.50000
999
Building Shading:Mir-SHADING_N - ROAD - SURFACE 2 (18)
  0
3DFACE
  8
Building Shading
 62
195
 10
       -3.72329
 20
      105.52157
 30
        3.50000
 11
       -3.72329
 21
      105.52157
 31
        0.00000
 12
       16.23384
 22
      104.82465
 32
        0.00000
 13
       16.23384
 23
      104.82465
 33
        3.50000
999
Building Shading:SHADING_N - ROAD - SURFACE 3 (19)
  0
3DFACE
  8
Building Shading
 62
195
 10
       -3.72329
 20
      105.52157
 30
        3.50000
 11
       -3.72329
 21
      105.52157
 31
        0.00000
 12
       -6.34881
 22
       60.55980
 32
        0.00000
 13
       -6.34881
 23
       60.55980
 33
        3.50000
999
Building Shading:Mir-SHADING_N - ROAD - SURFACE 3 (19)
  0
3DFACE
  8
Building Shading
 62
195
 10
       -6.34881
 20
       60.55980
 30
        3.50000
 11
       -6.34881
 21
       60.55980
 31
        0.00000
 12
       -3.72329
 22
      105.52157
 32
        0.00000
 13
       -3.72329
 23
      105.52157
 33
        3.50000
999
Building Shading:SHADING_N - ROAD - SURFACE 4 (20)
  0
3DFACE
  8
Building Shading
 62
195
 10
       14.11625
 20
       59.36351
 30
        3.50000
 11
       14.11625
 21
       59.36351
 31
        0.00000
 12
       16.23384
 22
      104.82465
 32
        0.00000
 13
       16.23384
 23
      104.82465
 33
        3.50000
999
Building Shading:Mir-SHADING_N - ROAD - SURFACE 4 (20)
  0
3DFACE
  8
Building Shading
 62
195
 10
       16.23384
 20
      104.82465
 30
        3.50000
 11
       16.23384
 21
      104.82465
 31
        0.00000
 12
       14.11625
 22
       59.36351
 32
        0.00000
 13
       14.11625
 23
       59.36351
 33
        3.50000
999
Building Shading:SHADING_N - ROAD - SURFACE 5 (21)
  0
3DFACE
  8
Building Shading
 62
195
 10
       -6.34881
 20
       60.55980
 30
        3.50000
 11
       -6.34881
 21
       60.55980
 31
        0.00000
 12
       14.11625
 22
       59.36351
 32
        0.00000
 13
       14.11625
 23
       59.36351
 33
        3.50000
999
Building Shading:Mir-SHADING_N - ROAD - SURFACE 5 (21)
  0
3DFACE
  8
Building Shading
 62
195
 10
       14.11625
 20
       59.36351
 30
        3.50000
 11
       14.11625
 21
       59.36351
 31
        0.00000
 12
       -6.34881
 22
       60.55980
 32
        0.00000
 13
       -6.34881
 23
       60.55980
 33
        3.50000
999
Building Shading:SHADING_N - ROAD - SURFACE 6 (22)
  0
3DFACE
  8
Building Shading
 62
195
 10
       16.23384
 20
      104.82465
 30
        3.50000
 11
       -3.72329
 21
      105.52157
 31
        3.50000
 12
       -6.34881
 22
       60.55980
 32
        3.50000
 13
       14.11625
 23
       59.36351
 33
        3.50000
999
Building Shading:Mir-SHADING_N - ROAD - SURFACE 6 (22)
  0
3DFACE
  8
Building Shading
 62
195
 10
       14.11625
 20
       59.36351
 30
        3.50000
 11
       -6.34881
 21
       60.55980
 31
        3.50000
 12
       -3.72329
 22
      105.52157
 32
        3.50000
 13
       16.23384
 23
      104.82465
 33
        3.50000
999
Building Shading:SHADING_N - CAR_PARK - SURFACE 1 (23)
  0
3DFACE
  8
Building Shading
 62
195
 10
       -3.72329
 20
      105.52157
 30
       11.50000
 11
      -17.66241
 21
      106.00834
 31
       11.50000
 12
      -20.12530
 22
       61.36510
 32
       11.50000
 13
       -6.34881
 23
       60.55980
 33
       11.50000
999
Building Shading:Mir-SHADING_N - CAR_PARK - SURFACE 1 (23)
  0
3DFACE
  8
Building Shading
 62
195
 10
       -6.34881
 20
       60.55980
 30
       11.50000
 11
      -20.12530
 21
       61.36510
 31
       11.50000
 12
      -17.66241
 22
      106.00834
 32
       11.50000
 13
       -3.72329
 23
      105.52157
 33
       11.50000
999
Building Shading:SHADING_N - CAR_PARK - SURFACE 2 (24)
  0
3DFACE
  8
Building Shading
 62
195
 10
      -20.12530
 20
       61.36510
 30
       11.50000
 11
      -20.12530
 21
       61.36510
 31
        0.00000
 12
       -6.34881
 22
       60.55980
 32
        0.00000
 13
       -6.34881
 23
       60.55980
 33
       11.50000
999
Building Shading:Mir-SHADING_N - CAR_PARK - SURFACE 2 (24)
  0
3DFACE
  8
Building Shading
 62
195
 10
       -6.34881
 20
       60.55980
 30
       11.50000
 11
       -6.34881
 21
       60.55980
 31
        0.00000
 12
      -20.12530
 22
       61.36510
 32
        0.00000
 13
      -20.12530
 23
       61.36510
 33
       11.50000
999
Building Shading:SHADING_N - CAR_PARK - SURFACE 3 (25)
  0
3DFACE
  8
Building Shading
 62
195
 10
      -17.66241
 20
      106.00834
 30
       11.50000
 11
      -17.66241
 21
      106.00834
 31
        0.00000
 12
      -20.12530
 22
       61.36510
 32
        0.00000
 13
      -20.12530
 23
       61.36510
 33
       11.50000
999
Building Shading:Mir-SHADING_N - CAR_PARK - SURFACE 3 (25)
  0
3DFACE
  8
Building Shading
 62
195
 10
      -20.12530
 20
       61.36510
 30
       11.50000
 11
      -20.12530
 21
       61.36510
 31
        0.00000
 12
      -17.66241
 22
      106.00834
 32
        0.00000
 13
      -17.66241
 23
      106.00834
 33
       11.50000
999
Building Shading:SHADING_N - CAR_PARK - SURFACE 4 (26)
  0
3DFACE
  8
Building Shading
 62
195
 10
       -6.34881
 20
       60.55980
 30
       11.50000
 11
       -6.34881
 21
       60.55980
 31
        0.00000
 12
       -3.72329
 22
      105.52157
 32
        0.00000
 13
       -3.72329
 23
      105.52157
 33
       11.50000
999
Building Shading:Mir-SHADING_N - CAR_PARK - SURFACE 4 (26)
  0
3DFACE
  8
Building Shading
 62
195
 10
       -3.72329
 20
      105.52157
 30
       11.50000
 11
       -3.72329
 21
      105.52157
 31
        0.00000
 12
       -6.34881
 22
       60.55980
 32
        0.00000
 13
       -6.34881
 23
       60.55980
 33
       11.50000
999
Building Shading:SHADING_N - CAR_PARK - SURFACE 5 (27)
  0
3DFACE
  8
Building Shading
 62
195
 10
       -3.72329
 20
      105.52157
 30
       11.50000
 11
       -3.72329
 21
      105.52157
 31
        0.00000
 12
      -17.66241
 22
      106.00834
 32
        0.00000
 13
      -17.66241
 23
      106.00834
 33
       11.50000
999
Building Shading:Mir-SHADING_N - CAR_PARK - SURFACE 5 (27)
  0
3DFACE
  8
Building Shading
 62
195
 10
      -17.66241
 20
      106.00834
 30
       11.50000
 11
      -17.66241
 21
      106.00834
 31
        0.00000
 12
       -3.72329
 22
      105.52157
 32
        0.00000
 13
       -3.72329
 23
      105.52157
 33
       11.50000
999
Building Shading:SHADING_N - CAR_PARK - SURFACE 6 (28)
  0
3DFACE
  8
Building Shading
 62
195
 10
       -6.34881
 20
       60.55980
 30
        0.00000
 11
      -20.12530
 21
       61.36510
 31
        0.00000
 12
      -17.66241
 22
      106.00834
 32
        0.00000
 13
       -3.72329
 23
      105.52157
 33
        0.00000
999
Building Shading:Mir-SHADING_N - CAR_PARK - SURFACE 6 (28)
  0
3DFACE
  8
Building Shading
 62
195
 10
       -3.72329
 20
      105.52157
 30
        0.00000
 11
      -17.66241
 21
      106.00834
 31
        0.00000
 12
      -20.12530
 22
       61.36510
 32
        0.00000
 13
       -6.34881
 23
       60.55980
 33
        0.00000
999
Building Shading:SHADING_N - GRAHAM_HILLS - SURFACE 1 (29)
  0
3DFACE
  8
Building Shading
 62
195
 10
       84.75511
 20
      102.43184
 30
       35.50000
 11
       16.23384
 21
      104.82465
 31
       35.50000
 12
       14.11625
 22
       59.36351
 32
       35.50000
 13
       14.11625
 23
       59.36351
 33
       35.50000
  0
3DFACE
  8
Building Shading
 62
195
 10
       84.75511
 20
      102.43184
 30
       35.50000
 11
       14.11625
 21
       59.36351
 31
       35.50000
 12
       29.90227
 22
       58.44074
 32
       35.50000
 13
       29.90227
 23
       58.44074
 33
       35.50000
  0
3DFACE
  8
Building Shading
 62
195
 10
       84.75511
 20
      102.43184
 30
       35.50000
 11
       29.90227
 21
       58.44074
 31
       35.50000
 12
       83.15397
 22
       56.58114
 32
       35.50000
 13
       83.15397
 23
       56.58114
 33
       35.50000
999
Building Shading:Mir-SHADING_N - GRAHAM_HILLS - SURFACE 1 (29)
  0
3DFACE
  8
Building Shading
 62
195
 10
       83.15397
 20
       56.58114
 30
       35.50000
 11
       29.90227
 21
       58.44074
 31
       35.50000
 12
       14.11625
 22
       59.36351
 32
       35.50000
 13
       14.11625
 23
       59.36351
 33
       35.50000
  0
3DFACE
  8
Building Shading
 62
195
 10
       83.15397
 20
       56.58114
 30
       35.50000
 11
       14.11625
 21
       59.36351
 31
       35.50000
 12
       16.23384
 22
      104.82465
 32
       35.50000
 13
       16.23384
 23
      104.82465
 33
       35.50000
  0
3DFACE
  8
Building Shading
 62
195
 10
       83.15397
 20
       56.58114
 30
       35.50000
 11
       16.23384
 21
      104.82465
 31
       35.50000
 12
       84.75511
 22
      102.43184
 32
       35.50000
 13
       84.75511
 23
      102.43184
 33
       35.50000
999
Building Shading:SHADING_N - GRAHAM_HILLS - SURFACE 2 (30)
  0
3DFACE
  8
Building Shading
 62
195
 10
       29.90227
 20
       58.44074
 30
       35.50000
 11
       29.90227
 21
       58.44074
 31
        0.00000
 12
       83.15397
 22
       56.58114
 32
        0.00000
 13
       83.15397
 23
       56.58114
 33
       35.50000
999
Building Shading:Mir-SHADING_N - GRAHAM_HILLS - SURFACE 2 (30)
  0
3DFACE
  8
Building Shading
 62
195
 10
       83.15397
 20
       56.58114
 30
       35.50000
 11
       83.15397
 21
       56.58114
 31
        0.00000
 12
       29.90227
 22
       58.44074
 32
        0.00000
 13
       29.90227
 23
       58.44074
 33
       35.50000
999
Building Shading:SHADING_N - GRAHAM_HILLS - SURFACE 3 (31)
  0
3DFACE
  8
Building Shading
 62
195
 10
       14.11625
 20
       59.36351
 30
       35.50000
 11
       14.11625
 21
       59.36351
 31
        0.00000
 12
       29.90227
 22
       58.44074
 32
        0.00000
 13
       29.90227
 23
       58.44074
 33
       35.50000
999
Building Shading:Mir-SHADING_N - GRAHAM_HILLS - SURFACE 3 (31)
  0
3DFACE
  8
Building Shading
 62
195
 10
       29.90227
 20
       58.44074
 30
       35.50000
 11
       29.90227
 21
       58.44074
 31
        0.00000
 12
       14.11625
 22
       59.36351
 32
        0.00000
 13
       14.11625
 23
       59.36351
 33
       35.50000
999
Building Shading:SHADING_N - GRAHAM_HILLS - SURFACE 4 (32)
  0
3DFACE
  8
Building Shading
 62
195
 10
       83.15397
 20
       56.58114
 30
       35.50000
 11
       83.15397
 21
       56.58114
 31
        0.00000
 12
       84.75511
 22
      102.43184
 32
        0.00000
 13
       84.75511
 23
      102.43184
 33
       35.50000
999
Building Shading:Mir-SHADING_N - GRAHAM_HILLS - SURFACE 4 (32)
  0
3DFACE
  8
Building Shading
 62
195
 10
       84.75511
 20
      102.43184
 30
       35.50000
 11
       84.75511
 21
      102.43184
 31
        0.00000
 12
       83.15397
 22
       56.58114
 32
        0.00000
 13
       83.15397
 23
       56.58114
 33
       35.50000
999
Building Shading:SHADING_N - GRAHAM_HILLS - SURFACE 5 (33)
  0
3DFACE
  8
Building Shading
 62
195
 10
       84.75511
 20
      102.43184
 30
       35.50000
 11
       84.75511
 21
      102.43184
 31
        0.00000
 12
       16.23384
 22
      104.82465
 32
        0.00000
 13
       16.23384
 23
      104.82465
 33
       35.50000
999
Building Shading:Mir-SHADING_N - GRAHAM_HILLS - SURFACE 5 (33)
  0
3DFACE
  8
Building Shading
 62
195
 10
       16.23384
 20
      104.82465
 30
       35.50000
 11
       16.23384
 21
      104.82465
 31
        0.00000
 12
       84.75511
 22
      102.43184
 32
        0.00000
 13
       84.75511
 23
      102.43184
 33
       35.50000
999
Building Shading:SHADING_N - GRAHAM_HILLS - SURFACE 6 (34)
  0
3DFACE
  8
Building Shading
 62
195
 10
       16.23384
 20
      104.82465
 30
       35.50000
 11
       16.23384
 21
      104.82465
 31
        0.00000
 12
       14.11625
 22
       59.36351
 32
        0.00000
 13
       14.11625
 23
       59.36351
 33
       35.50000
999
Building Shading:Mir-SHADING_N - GRAHAM_HILLS - SURFACE 6 (34)
  0
3DFACE
  8
Building Shading
 62
195
 10
       14.11625
 20
       59.36351
 30
       35.50000
 11
       14.11625
 21
       59.36351
 31
        0.00000
 12
       16.23384
 22
      104.82465
 32
        0.00000
 13
       16.23384
 23
      104.82465
 33
       35.50000
999
Building Shading:SHADING_N - GRAHAM_HILLS - SURFACE 7 (35)
  0
3DFACE
  8
Building Shading
 62
195
 10
       29.90227
 20
       58.44074
 30
        0.00000
 11
       14.11625
 21
       59.36351
 31
        0.00000
 12
       16.23384
 22
      104.82465
 32
        0.00000
 13
       16.23384
 23
      104.82465
 33
        0.00000
  0
3DFACE
  8
Building Shading
 62
195
 10
       29.90227
 20
       58.44074
 30
        0.00000
 11
       16.23384
 21
      104.82465
 31
        0.00000
 12
       84.75511
 22
      102.43184
 32
        0.00000
 13
       84.75511
 23
      102.43184
 33
        0.00000
  0
3DFACE
  8
Building Shading
 62
195
 10
       29.90227
 20
       58.44074
 30
        0.00000
 11
       84.75511
 21
      102.43184
 31
        0.00000
 12
       83.15397
 22
       56.58114
 32
        0.00000
 13
       83.15397
 23
       56.58114
 33
        0.00000
999
Building Shading:Mir-SHADING_N - GRAHAM_HILLS - SURFACE 7 (35)
  0
3DFACE
  8
Building Shading
 62
195
 10
       83.15397
 20
       56.58114
 30
        0.00000
 11
       84.75511
 21
      102.43184
 31
        0.00000
 12
       16.23384
 22
      104.82465
 32
        0.00000
 13
       16.23384
 23
      104.82465
 33
        0.00000
  0
3DFACE
  8
Building Shading
 62
195
 10
       83.15397
 20
       56.58114
 30
        0.00000
 11
       16.23384
 21
      104.82465
 31
        0.00000
 12
       14.11625
 22
       59.36351
 32
        0.00000
 13
       14.11625
 23
       59.36351
 33
        0.00000
  0
3DFACE
  8
Building Shading
 62
195
 10
       83.15397
 20
       56.58114
 30
        0.00000
 11
       14.11625
 21
       59.36351
 31
        0.00000
 12
       29.90227
 22
       58.44074
 32
        0.00000
 13
       29.90227
 23
       58.44074
 33
        0.00000
999
Building Shading:SHADING_N - LIVINGSTONE_TOWER - SURFACE 1 (36)
  0
3DFACE
  8
Building Shading
 62
195
 10
      -32.11483
 20
       62.06595
 30
       55.50000
 11
      -41.09350
 21
       62.59080
 31
       55.50000
 12
      -41.10087
 22
       62.37975
 32
       55.50000
 13
      -41.10087
 23
       62.37975
 33
       55.50000
999
Building Shading:Mir-SHADING_N - LIVINGSTONE_TOWER - SURFACE 1 (36)
  0
3DFACE
  8
Building Shading
 62
195
 10
      -41.10087
 20
       62.37975
 30
       55.50000
 11
      -41.09350
 21
       62.59080
 31
       55.50000
 12
      -32.11483
 22
       62.06595
 32
       55.50000
 13
      -32.11483
 23
       62.06595
 33
       55.50000
999
Building Shading:SHADING_N - LIVINGSTONE_TOWER - SURFACE 2 (37)
  0
3DFACE
  8
Building Shading
 62
195
 10
      -17.66241
 20
      106.00834
 30
       55.50000
 11
      -39.55064
 21
      106.77269
 31
       55.50000
 12
      -41.09350
 22
       62.59080
 32
       55.50000
 13
      -20.12530
 23
       61.36510
 33
       55.50000
999
Building Shading:Mir-SHADING_N - LIVINGSTONE_TOWER - SURFACE 2 (37)
  0
3DFACE
  8
Building Shading
 62
195
 10
      -20.12530
 20
       61.36510
 30
       55.50000
 11
      -41.09350
 21
       62.59080
 31
       55.50000
 12
      -39.55064
 22
      106.77269
 32
       55.50000
 13
      -17.66241
 23
      106.00834
 33
       55.50000
999
Building Shading:SHADING_N - LIVINGSTONE_TOWER - SURFACE 3 (38)
  0
3DFACE
  8
Building Shading
 62
195
 10
      -41.10087
 20
       62.37975
 30
       55.50000
 11
      -41.10087
 21
       62.37975
 31
        0.00000
 12
      -32.11483
 22
       62.06595
 32
        0.00000
 13
      -32.11483
 23
       62.06595
 33
       55.50000
999
Building Shading:Mir-SHADING_N - LIVINGSTONE_TOWER - SURFACE 3 (38)
  0
3DFACE
  8
Building Shading
 62
195
 10
      -32.11483
 20
       62.06595
 30
       55.50000
 11
      -32.11483
 21
       62.06595
 31
        0.00000
 12
      -41.10087
 22
       62.37975
 32
        0.00000
 13
      -41.10087
 23
       62.37975
 33
       55.50000
999
Building Shading:SHADING_N - LIVINGSTONE_TOWER - SURFACE 4 (39)
  0
3DFACE
  8
Building Shading
 62
195
 10
      -32.11483
 20
       62.06595
 30
       55.50000
 11
      -32.11483
 21
       62.06595
 31
        0.00000
 12
      -20.12530
 22
       61.36510
 32
        0.00000
 13
      -20.12530
 23
       61.36510
 33
       55.50000
999
Building Shading:Mir-SHADING_N - LIVINGSTONE_TOWER - SURFACE 4 (39)
  0
3DFACE
  8
Building Shading
 62
195
 10
      -20.12530
 20
       61.36510
 30
       55.50000
 11
      -20.12530
 21
       61.36510
 31
        0.00000
 12
      -32.11483
 22
       62.06595
 32
        0.00000
 13
      -32.11483
 23
       62.06595
 33
       55.50000
999
Building Shading:SHADING_N - LIVINGSTONE_TOWER - SURFACE 5 (40)
  0
3DFACE
  8
Building Shading
 62
195
 10
      -20.12530
 20
       61.36510
 30
       55.50000
 11
      -20.12530
 21
       61.36510
 31
        0.00000
 12
      -17.66241
 22
      106.00834
 32
        0.00000
 13
      -17.66241
 23
      106.00834
 33
       55.50000
999
Building Shading:Mir-SHADING_N - LIVINGSTONE_TOWER - SURFACE 5 (40)
  0
3DFACE
  8
Building Shading
 62
195
 10
      -17.66241
 20
      106.00834
 30
       55.50000
 11
      -17.66241
 21
      106.00834
 31
        0.00000
 12
      -20.12530
 22
       61.36510
 32
        0.00000
 13
      -20.12530
 23
       61.36510
 33
       55.50000
999
Building Shading:SHADING_N - LIVINGSTONE_TOWER - SURFACE 6 (41)
  0
3DFACE
  8
Building Shading
 62
195
 10
      -17.66241
 20
      106.00834
 30
       55.50000
 11
      -17.66241
 21
      106.00834
 31
        0.00000
 12
      -39.55064
 22
      106.77269
 32
        0.00000
 13
      -39.55064
 23
      106.77269
 33
       55.50000
999
Building Shading:Mir-SHADING_N - LIVINGSTONE_TOWER - SURFACE 6 (41)
  0
3DFACE
  8
Building Shading
 62
195
 10
      -39.55064
 20
      106.77269
 30
       55.50000
 11
      -39.55064
 21
      106.77269
 31
        0.00000
 12
      -17.66241
 22
      106.00834
 32
        0.00000
 13
      -17.66241
 23
      106.00834
 33
       55.50000
999
Building Shading:SHADING_N - LIVINGSTONE_TOWER - SURFACE 7 (42)
  0
3DFACE
  8
Building Shading
 62
195
 10
      -39.55064
 20
      106.77269
 30
       55.50000
 11
      -39.55064
 21
      106.77269
 31
        0.00000
 12
      -41.10087
 22
       62.37975
 32
        0.00000
 13
      -41.10087
 23
       62.37975
 33
       55.50000
999
Building Shading:Mir-SHADING_N - LIVINGSTONE_TOWER - SURFACE 7 (42)
  0
3DFACE
  8
Building Shading
 62
195
 10
      -41.10087
 20
       62.37975
 30
       55.50000
 11
      -41.10087
 21
       62.37975
 31
        0.00000
 12
      -39.55064
 22
      106.77269
 32
        0.00000
 13
      -39.55064
 23
      106.77269
 33
       55.50000
999
Building Shading:SHADING_N - LIVINGSTONE_TOWER - SURFACE 8 (43)
  0
3DFACE
  8
Building Shading
 62
195
 10
      -20.12530
 20
       61.36510
 30
        0.00000
 11
      -32.11483
 21
       62.06595
 31
        0.00000
 12
      -20.10976
 22
       61.64672
 32
        0.00000
 13
      -20.10976
 23
       61.64672
 33
        0.00000
999
Building Shading:Mir-SHADING_N - LIVINGSTONE_TOWER - SURFACE 8 (43)
  0
3DFACE
  8
Building Shading
 62
195
 10
      -20.10976
 20
       61.64672
 30
        0.00000
 11
      -32.11483
 21
       62.06595
 31
        0.00000
 12
      -20.12530
 22
       61.36510
 32
        0.00000
 13
      -20.12530
 23
       61.36510
 33
        0.00000
999
Building Shading:SHADING_N - LIVINGSTONE_TOWER - SURFACE 9 (44)
  0
3DFACE
  8
Building Shading
 62
195
 10
      -20.10976
 20
       61.64672
 30
        0.00000
 11
      -41.10087
 21
       62.37975
 31
        0.00000
 12
      -39.55064
 22
      106.77269
 32
        0.00000
 13
      -17.66241
 23
      106.00834
 33
        0.00000
999
Building Shading:Mir-SHADING_N - LIVINGSTONE_TOWER - SURFACE 9 (44)
  0
3DFACE
  8
Building Shading
 62
195
 10
      -17.66241
 20
      106.00834
 30
        0.00000
 11
      -39.55064
 21
      106.77269
 31
        0.00000
 12
      -41.10087
 22
       62.37975
 32
        0.00000
 13
      -20.10976
 23
       61.64672
 33
        0.00000
999
Building Shading:SHADING_N - COLLINS - SURFACE 1 (45)
  0
3DFACE
  8
Building Shading
 62
195
 10
      -39.55064
 20
      106.77269
 30
       24.32000
 11
      -67.24224
 21
      107.73970
 31
       24.32000
 12
      -68.79247
 22
       63.34676
 32
       24.32000
 13
      -41.10087
 23
       62.37975
 33
       24.32000
999
Building Shading:Mir-SHADING_N - COLLINS - SURFACE 1 (45)
  0
3DFACE
  8
Building Shading
 62
195
 10
      -41.10087
 20
       62.37975
 30
       24.32000
 11
      -68.79247
 21
       63.34676
 31
       24.32000
 12
      -67.24224
 22
      107.73970
 32
       24.32000
 13
      -39.55064
 23
      106.77269
 33
       24.32000
999
Building Shading:SHADING_N - COLLINS - SURFACE 2 (46)
  0
3DFACE
  8
Building Shading
 62
195
 10
      -41.10087
 20
       62.37975
 30
       24.32000
 11
      -41.10087
 21
       62.37975
 31
        0.00000
 12
      -39.55064
 22
      106.77269
 32
        0.00000
 13
      -39.55064
 23
      106.77269
 33
       24.32000
999
Building Shading:Mir-SHADING_N - COLLINS - SURFACE 2 (46)
  0
3DFACE
  8
Building Shading
 62
195
 10
      -39.55064
 20
      106.77269
 30
       24.32000
 11
      -39.55064
 21
      106.77269
 31
        0.00000
 12
      -41.10087
 22
       62.37975
 32
        0.00000
 13
      -41.10087
 23
       62.37975
 33
       24.32000
999
Building Shading:SHADING_N - COLLINS - SURFACE 3 (47)
  0
3DFACE
  8
Building Shading
 62
195
 10
      -68.79247
 20
       63.34676
 30
       24.32000
 11
      -68.79247
 21
       63.34676
 31
        0.00000
 12
      -41.10087
 22
       62.37975
 32
        0.00000
 13
      -41.10087
 23
       62.37975
 33
       24.32000
999
Building Shading:Mir-SHADING_N - COLLINS - SURFACE 3 (47)
  0
3DFACE
  8
Building Shading
 62
195
 10
      -41.10087
 20
       62.37975
 30
       24.32000
 11
      -41.10087
 21
       62.37975
 31
        0.00000
 12
      -68.79247
 22
       63.34676
 32
        0.00000
 13
      -68.79247
 23
       63.34676
 33
       24.32000
999
Building Shading:SHADING_N - COLLINS - SURFACE 4 (48)
  0
3DFACE
  8
Building Shading
 62
195
 10
      -39.55064
 20
      106.77269
 30
       24.32000
 11
      -39.55064
 21
      106.77269
 31
        0.00000
 12
      -67.24224
 22
      107.73970
 32
        0.00000
 13
      -67.24224
 23
      107.73970
 33
       24.32000
999
Building Shading:Mir-SHADING_N - COLLINS - SURFACE 4 (48)
  0
3DFACE
  8
Building Shading
 62
195
 10
      -67.24224
 20
      107.73970
 30
       24.32000
 11
      -67.24224
 21
      107.73970
 31
        0.00000
 12
      -39.55064
 22
      106.77269
 32
        0.00000
 13
      -39.55064
 23
      106.77269
 33
       24.32000
999
Building Shading:SHADING_N - COLLINS - SURFACE 5 (49)
  0
3DFACE
  8
Building Shading
 62
195
 10
      -67.24224
 20
      107.73970
 30
       24.32000
 11
      -67.24224
 21
      107.73970
 31
        0.00000
 12
      -68.79247
 22
       63.34676
 32
        0.00000
 13
      -68.79247
 23
       63.34676
 33
       24.32000
999
Building Shading:Mir-SHADING_N - COLLINS - SURFACE 5 (49)
  0
3DFACE
  8
Building Shading
 62
195
 10
      -68.79247
 20
       63.34676
 30
       24.32000
 11
      -68.79247
 21
       63.34676
 31
        0.00000
 12
      -67.24224
 22
      107.73970
 32
        0.00000
 13
      -67.24224
 23
      107.73970
 33
       24.32000
999
Building Shading:SHADING_N - COLLINS - SURFACE 6 (50)
  0
3DFACE
  8
Building Shading
 62
195
 10
      -41.10087
 20
       62.37975
 30
        0.00000
 11
      -68.79247
 21
       63.34676
 31
        0.00000
 12
      -67.24224
 22
      107.73970
 32
        0.00000
 13
      -39.55064
 23
      106.77269
 33
        0.00000
999
Building Shading:Mir-SHADING_N - COLLINS - SURFACE 6 (50)
  0
3DFACE
  8
Building Shading
 62
195
 10
      -39.55064
 20
      106.77269
 30
        0.00000
 11
      -67.24224
 21
      107.73970
 31
        0.00000
 12
      -68.79247
 22
       63.34676
 32
        0.00000
 13
      -41.10087
 23
       62.37975
 33
        0.00000
999
02PLENUM:VOID:02PLENUM:VOID_WALL_2_0_0
  0
3DFACE
  8
02PLENUM_VOID
 62
 43
 10
      -17.14059
 20
      -19.82228
 30
       12.71500
 11
      -17.14059
 21
      -19.82228
 31
       12.01500
 12
       14.37266
 22
      -10.76466
 32
       12.01500
 13
       14.37266
 23
      -10.76466
 33
       12.71500
999
02PLENUM:VOID:02PLENUM:VOID_WALL_3_0_0
  0
3DFACE
  8
02PLENUM_VOID
 62
 43
 10
       14.37266
 20
      -10.76466
 30
       12.71500
 11
       14.37266
 21
      -10.76466
 31
       12.01500
 12
        8.21384
 22
       10.72726
 32
       12.01500
 13
        8.21384
 23
       10.72726
 33
       12.71500
999
02PLENUM:VOID:02PLENUM:VOID_WALL_4_0_0
  0
3DFACE
  8
02PLENUM_VOID
 62
 43
 10
        8.21384
 20
       10.72726
 30
       12.71500
 11
        8.21384
 21
       10.72726
 31
       12.01500
 12
        8.26305
 22
       12.13640
 32
       12.01500
 13
        8.26305
 23
       12.13640
 33
       12.71500
999
02PLENUM:VOID:02PLENUM:VOID_WALL_5_0_0
  0
3DFACE
  8
02PLENUM_VOID
 62
 43
 10
        8.26305
 20
       12.13640
 30
       12.71500
 11
        8.26305
 21
       12.13640
 31
       12.01500
 12
        9.16250
 22
       12.10499
 32
       12.01500
 13
        9.16250
 23
       12.10499
 33
       12.71500
999
02PLENUM:VOID:02PLENUM:VOID_WALL_6_0_0
  0
3DFACE
  8
02PLENUM_VOID
 62
 43
 10
        9.16250
 20
       12.10499
 30
       12.71500
 11
        9.16250
 21
       12.10499
 31
       12.01500
 12
        9.42591
 22
       19.64819
 32
       12.01500
 13
        9.42591
 23
       19.64819
 33
       12.71500
999
02PLENUM:VOID:02PLENUM:VOID_WALL_7_0_0
  0
3DFACE
  8
02PLENUM_VOID
 62
 43
 10
        9.42591
 20
       19.64819
 30
       12.71500
 11
        9.42591
 21
       19.64819
 31
       12.01500
 12
      -15.44562
 22
       28.71557
 32
       12.01500
 13
      -15.44562
 23
       28.71557
 33
       12.71500
999
02PLENUM:VOID:02PLENUM:VOID_WALL_8_0_0
  0
3DFACE
  8
02PLENUM_VOID
 62
 43
 10
      -15.44562
 20
       28.71557
 30
       12.71500
 11
      -15.44562
 21
       28.71557
 31
       12.01500
 12
      -17.14059
 22
      -19.82228
 32
       12.01500
 13
      -17.14059
 23
      -19.82228
 33
       12.71500
999
02PLENUM:VOID:02PLENUM:VOID_FLOOR_0_0_0
  0
3DFACE
  8
02PLENUM_VOID
 62
  8
 10
       -6.22647
 20
       18.37830
 30
       12.01500
 11
      -15.68526
 21
       21.85308
 31
       12.01500
 12
      -15.44562
 22
       28.71557
 32
       12.01500
 13
       -5.98592
 23
       25.26686
 33
       12.01500
999
02PLENUM:VOID:02PLENUM:VOID_FLOOR_0_0_1
  0
3DFACE
  8
02PLENUM_VOID
 62
  8
 10
       -4.44982
 20
       15.62233
 30
       12.01500
 11
      -15.75778
 21
       19.77642
 31
       12.01500
 12
      -15.68526
 22
       21.85308
 32
       12.01500
 13
       -3.76903
 23
       17.47553
 33
       12.01500
999
02PLENUM:VOID:02PLENUM:VOID_FLOOR_0_0_2
  0
3DFACE
  8
02PLENUM_VOID
 62
  8
 10
        1.37626
 20
       13.48206
 30
       12.01500
 11
        0.94062
 21
        1.00703
 31
       12.01500
 12
       -3.64941
 22
       15.32829
 32
       12.01500
 13
       -3.64941
 23
       15.32829
 33
       12.01500
999
02PLENUM:VOID:02PLENUM:VOID_FLOOR_0_0_3
  0
3DFACE
  8
02PLENUM_VOID
 62
  8
 10
        5.52826
 20
      -13.30674
 30
       12.01500
 11
      -17.14059
 21
      -19.82228
 31
       12.01500
 12
      -15.75778
 22
       19.77642
 32
       12.01500
 13
       -3.64941
 23
       15.32829
 33
       12.01500
999
02PLENUM:VOID:02PLENUM:VOID_FLOOR_0_1_0
  0
3DFACE
  8
02PLENUM_VOID
 62
  8
 10
        9.16249
 20
       12.10499
 30
       12.01500
 11
        7.91326
 21
       12.14862
 31
       12.01500
 12
        8.14499
 22
       18.78469
 32
       12.01500
 13
        9.38003
 23
       18.33444
 33
       12.01500
999
02PLENUM:VOID:02PLENUM:VOID_FLOOR_0_1_1
  0
3DFACE
  8
02PLENUM_VOID
 62
  8
 10
        9.38003
 20
       18.33444
 30
       12.01500
 11
        5.70947
 21
       19.67261
 31
       12.01500
 12
        6.13762
 22
       20.84700
 32
       12.01500
 13
        9.42591
 23
       19.64819
 33
       12.01500
999
02PLENUM:VOID:02PLENUM:VOID_FLOOR_0_2_0
  0
3DFACE
  8
02PLENUM_VOID
 62
  8
 10
        8.26304
 20
       12.13640
 30
       12.01500
 11
        8.21383
 21
       10.72726
 31
       12.01500
 12
        7.80544
 22
       12.15238
 32
       12.01500
 13
        7.80544
 23
       12.15238
 33
       12.01500
999
02PLENUM:VOID:02PLENUM:VOID_FLOOR_0_2_1
  0
3DFACE
  8
02PLENUM_VOID
 62
  8
 10
       13.13301
 20
       -6.43877
 30
       12.01500
 11
        4.15480
 21
       -9.02146
 31
       12.01500
 12
        0.94062
 22
        1.00703
 32
       12.01500
 13
        0.94062
 23
        1.00703
 33
       12.01500
  0
3DFACE
  8
02PLENUM_VOID
 62
  8
 10
       13.13301
 20
       -6.43877
 30
       12.01500
 11
        0.94062
 21
        1.00703
 31
       12.01500
 12
        1.33771
 22
       12.37824
 32
       12.01500
 13
        1.33771
 23
       12.37824
 33
       12.01500
  0
3DFACE
  8
02PLENUM_VOID
 62
  8
 10
       13.13301
 20
       -6.43877
 30
       12.01500
 11
        1.33771
 21
       12.37824
 31
       12.01500
 12
        7.80544
 22
       12.15238
 32
       12.01500
 13
        7.80544
 23
       12.15238
 33
       12.01500
999
02PLENUM:VOID:02PLENUM:VOID_FLOOR_0_3_0
  0
3DFACE
  8
02PLENUM_VOID
 62
  8
 10
       14.02831
 20
       -9.56302
 30
       12.01500
 11
        8.45035
 21
      -11.16625
 31
       12.01500
 12
        7.55838
 22
       -8.04238
 32
       12.01500
 13
       13.13301
 23
       -6.43877
 33
       12.01500
999
02PLENUM:VOID:02PLENUM:VOID_FLOOR_0_4_0
  0
3DFACE
  8
02PLENUM_VOID
 62
  8
 10
        8.45035
 20
      -11.16625
 30
       12.01500
 11
        5.14657
 21
      -12.11583
 31
       12.01500
 12
        4.15480
 22
       -9.02146
 32
       12.01500
 13
        7.55838
 23
       -8.04238
 33
       12.01500
999
02PLENUM:VOID:02PLENUM:VOID_FLOOR_0_5_0
  0
3DFACE
  8
02PLENUM_VOID
 62
  8
 10
        8.79355
 20
      -12.36821
 30
       12.01500
 11
        5.52826
 21
      -13.30673
 31
       12.01500
 12
        5.14657
 22
      -12.11583
 32
       12.01500
 13
        8.45035
 23
      -11.16625
 33
       12.01500
999
02PLENUM:VOID:02PLENUM:VOID_FLOOR_0_6_0
  0
3DFACE
  8
02PLENUM_VOID
 62
  8
 10
        3.02865
 20
       12.31919
 30
       12.01500
 11
        2.58695
 21
       12.33462
 31
       12.01500
 12
        2.65711
 22
       14.34374
 32
       12.01500
 13
        3.63656
 23
       13.98667
 33
       12.01500
999
02PLENUM:VOID:02PLENUM:VOID_FLOOR_0_6_1
  0
3DFACE
  8
02PLENUM_VOID
 62
  8
 10
        7.91326
 20
       12.14862
 30
       12.01500
 11
        3.02865
 21
       12.31919
 31
       12.01500
 12
        5.70947
 22
       19.67261
 32
       12.01500
 13
        8.14499
 23
       18.78469
 33
       12.01500
999
02PLENUM:VOID:02PLENUM:VOID_FLOOR_0_7_0
  0
3DFACE
  8
02PLENUM_VOID
 62
  8
 10
        2.58695
 20
       12.33462
 30
       12.01500
 11
        1.33771
 21
       12.37824
 31
       12.01500
 12
        1.37626
 22
       13.48206
 32
       12.01500
 13
        2.61118
 23
       13.02840
 33
       12.01500
999
02PLENUM:VOID:02PLENUM:VOID_FLOOR_0_7_1
  0
3DFACE
  8
02PLENUM_VOID
 62
  8
 10
        3.63656
 20
       13.98667
 30
       12.01500
 11
        2.65711
 21
       14.34374
 31
       12.01500
 12
        2.68370
 22
       15.10506
 32
       12.01500
 13
        3.88359
 23
       14.66427
 33
       12.01500
999
02PLENUM:VOID:02PLENUM:VOID_FLOOR_0_7_2
  0
3DFACE
  8
02PLENUM_VOID
 62
  8
 10
        2.61118
 20
       13.02840
 30
       12.01500
 11
       -4.44982
 21
       15.62233
 31
       12.01500
 12
       -3.76903
 22
       17.47553
 32
       12.01500
 13
        2.68370
 23
       15.10506
 33
       12.01500
999
02PLENUM:VOID:02PLENUM:VOID_FLOOR_0_7_3
  0
3DFACE
  8
02PLENUM_VOID
 62
  8
 10
        3.88359
 20
       14.66427
 30
       12.01500
 11
       -6.22647
 21
       18.37830
 31
       12.01500
 12
       -5.98592
 22
       25.26686
 32
       12.01500
 13
        6.13762
 23
       20.84700
 33
       12.01500
999
02PLENUM:VOID:02PLENUM:VOID_FLOOR_0_8_0
  0
3DFACE
  8
02PLENUM_VOID
 62
  8
 10
       14.37266
 20
      -10.76465
 30
       12.01500
 11
        8.79355
 21
      -12.36821
 31
       12.01500
 12
        8.45035
 22
      -11.16625
 32
       12.01500
 13
       14.02831
 23
       -9.56302
 33
       12.01500
999
02PLENUM:VOID:02PLENUM:VOID_CEILING_1_0_0
  0
3DFACE
  8
02PLENUM_VOID
 62
 15
 10
       14.37266
 20
      -10.76466
 30
       12.71500
 11
        8.21384
 21
       10.72726
 31
       12.71500
 12
        7.39327
 22
      -12.77069
 32
       12.71500
 13
        7.39327
 23
      -12.77069
 33
       12.71500
999
02PLENUM:VOID:02PLENUM:VOID_CEILING_1_0_1
  0
3DFACE
  8
02PLENUM_VOID
 62
 15
 10
        8.26305
 20
       12.13640
 30
       12.71500
 11
      -15.99499
 21
       12.98351
 31
       12.71500
 12
      -17.14059
 22
      -19.82228
 32
       12.71500
 13
        7.39327
 23
      -12.77069
 33
       12.71500
999
02PLENUM:VOID:02PLENUM:VOID_CEILING_1_0_2
  0
3DFACE
  8
02PLENUM_VOID
 62
 15
 10
        9.42591
 20
       19.64819
 30
       12.71500
 11
      -15.44562
 21
       28.71557
 31
       12.71500
 12
      -15.99499
 22
       12.98351
 32
       12.71500
 13
        9.16250
 23
       12.10499
 33
       12.71500
999
02FFE:OFFICEXNEXLED:02FFE:OFFICEXNEXLED_WALL_2_0_0
  0
3DFACE
  8
02FFE_OFFICEXNEXLED
 62
 43
 10
        8.26304
 20
       12.13640
 30
       12.01500
 11
        8.26304
 21
       12.13640
 31
        8.63500
 12
        9.16249
 22
       12.10499
 32
        8.63500
 13
        9.16249
 23
       12.10499
 33
       12.01500
999
02FFE:OFFICEXNEXLED:02FFE:OFFICEXNEXLED_WALL_3_0_0
  0
3DFACE
  8
02FFE_OFFICEXNEXLED
 62
 43
 10
        9.16249
 20
       12.10499
 30
       12.01500
 11
        9.16249
 21
       12.10499
 31
        8.63500
 12
        9.42591
 22
       19.64819
 32
        8.63500
 13
        9.42591
 23
       19.64819
 33
       12.01500
999
02FFE:OFFICEXNEXLED:02FFE:OFFICEXNEXLED_WALL_3_0_0_0_0_0_WIN
  0
3DFACE
  8
02FFE_OFFICEXNEXLED
 62
143
 10
        9.18211
 20
       12.66678
 30
       11.87500
 11
        9.18211
 21
       12.66678
 31
        8.77500
 12
        9.21457
 22
       13.59621
 32
        8.77500
 13
        9.21457
 23
       13.59621
 33
       11.87500
999
02FFE:OFFICEXNEXLED:02FFE:OFFICEXNEXLED_WALL_3_0_0_1_0_1_WIN
  0
3DFACE
  8
02FFE_OFFICEXNEXLED
 62
143
 10
        9.23481
 20
       14.17586
 30
       11.87500
 11
        9.23481
 21
       14.17586
 31
        8.77500
 12
        9.24982
 22
       14.60560
 32
        8.77500
 13
        9.24982
 23
       14.60560
 33
       11.87500
999
02FFE:OFFICEXNEXLED:02FFE:OFFICEXNEXLED_WALL_3_0_0_2_0_2_WIN
  0
3DFACE
  8
02FFE_OFFICEXNEXLED
 62
143
 10
        9.28751
 20
       15.68494
 30
       11.87500
 11
        9.28751
 21
       15.68494
 31
        8.77500
 12
        9.31997
 22
       16.61437
 32
        8.77500
 13
        9.31997
 23
       16.61437
 33
       11.87500
999
02FFE:OFFICEXNEXLED:02FFE:OFFICEXNEXLED_WALL_3_0_0_3_0_3_WIN
  0
3DFACE
  8
02FFE_OFFICEXNEXLED
 62
143
 10
        9.34056
 20
       17.20401
 30
       11.87500
 11
        9.34056
 21
       17.20401
 31
        8.77500
 12
        9.37301
 22
       18.13345
 32
        8.77500
 13
        9.37301
 23
       18.13345
 33
       11.87500
999
02FFE:OFFICEXNEXLED:02FFE:OFFICEXNEXLED_WALL_4_0_0
  0
3DFACE
  8
02FFE_OFFICEXNEXLED
 62
 43
 10
        9.42591
 20
       19.64819
 30
       12.01500
 11
        9.42591
 21
       19.64819
 31
        8.63500
 12
        6.13762
 22
       20.84700
 32
        8.63500
 13
        6.13762
 23
       20.84700
 33
       12.01500
999
02FFE:OFFICEXNEXLED:02FFE:OFFICEXNEXLED_WALL_4_0_0_0_0_0_WIN
  0
3DFACE
  8
02FFE_OFFICEXNEXLED
 62
143
 10
        9.32011
 20
       19.68676
 30
       11.87500
 11
        9.32011
 21
       19.68676
 31
        8.77500
 12
        6.22217
 22
       20.81617
 32
        8.77500
 13
        6.22217
 23
       20.81617
 33
       11.87500
999
02FFE:OFFICEXNEXLED:02FFE:OFFICEXNEXLED_PARTITION_5_0_0
  0
3DFACE
  8
02FFE_OFFICEXNEXLED
 62
 43
 10
        6.13762
 20
       20.84700
 30
       12.01500
 11
        6.13762
 21
       20.84700
 31
        8.63500
 12
        5.70947
 22
       19.67261
 32
        8.63500
 13
        5.70947
 23
       19.67261
 33
       12.01500
999
02FFE:OFFICEXNEXLED:02FFE:OFFICEXNEXLED_PARTITION_8_0_0
  0
3DFACE
  8
02FFE_OFFICEXNEXLED
 62
 43
 10
        7.91326
 20
       12.14862
 30
       12.01500
 11
        7.91326
 21
       12.14862
 31
        8.63500
 12
        8.26304
 22
       12.13640
 32
        8.63500
 13
        8.26304
 23
       12.13640
 33
       12.01500
999
02FFE:OFFICEXNEXLED:02FFE:OFFICEXNEXLED_FLOOR_0_0_0
  0
3DFACE
  8
02FFE_OFFICEXNEXLED
 62
  8
 10
        8.26304
 20
       12.13640
 30
        8.63500
 11
        7.91326
 21
       12.14862
 31
        8.63500
 12
        8.11747
 22
       17.99645
 32
        8.63500
 13
        8.46328
 23
       17.87037
 33
        8.63500
999
02FFE:OFFICEXNEXLED:02FFE:OFFICEXNEXLED_EXTFLOOR_0_1_0
  0
3DFACE
  8
02FFE_OFFICEXNEXLED
 62
  8
 10
        9.16249
 20
       12.10499
 30
        8.63500
 11
        8.26304
 21
       12.13640
 31
        8.63500
 12
        8.46328
 22
       17.87037
 32
        8.63500
 13
        9.35250
 23
       17.54619
 33
        8.63500
999
02FFE:OFFICEXNEXLED:02FFE:OFFICEXNEXLED_EXTFLOOR_0_1_1
  0
3DFACE
  8
02FFE_OFFICEXNEXLED
 62
  8
 10
        9.35250
 20
       17.54619
 30
        8.63500
 11
        8.11747
 21
       17.99645
 31
        8.63500
 12
        8.14499
 22
       18.78469
 32
        8.63500
 13
        9.38003
 23
       18.33444
 33
        8.63500
999
02FFE:OFFICEXNEXLED:02FFE:OFFICEXNEXLED_EXTFLOOR_0_1_2
  0
3DFACE
  8
02FFE_OFFICEXNEXLED
 62
  8
 10
        9.38003
 20
       18.33444
 30
        8.63500
 11
        5.70947
 21
       19.67261
 31
        8.63500
 12
        6.13762
 22
       20.84700
 32
        8.63500
 13
        9.42591
 23
       19.64819
 33
        8.63500
999
02FFE:OFFICEXNEXLED:02FFE:OFFICEXNEXLED_CEILING_1_0_10004
  0
3DFACE
  8
02FFE_OFFICEXNEXLED
 62
 15
 10
        9.38003
 20
       18.33444
 30
       12.01500
 11
        8.14499
 21
       18.78469
 31
       12.01500
 12
        7.91326
 22
       12.14862
 32
       12.01500
 13
        9.16249
 23
       12.10499
 33
       12.01500
999
02FFE:OFFICEXNEXLED:02FFE:OFFICEXNEXLED_CEILING_1_0_10005
  0
3DFACE
  8
02FFE_OFFICEXNEXLED
 62
 15
 10
        9.42591
 20
       19.64819
 30
       12.01500
 11
        6.13762
 21
       20.84700
 31
       12.01500
 12
        5.70947
 22
       19.67261
 32
       12.01500
 13
        9.38003
 23
       18.33444
 33
       12.01500
999
02FFE:OFFICEXE:02FFE:OFFICEXE_PARTITION_5_0_10023
  0
3DFACE
  8
02FFE_OFFICEXE
 62
 43
 10
        8.26304
 20
       12.13640
 30
       12.01500
 11
        8.26304
 21
       12.13640
 31
        8.63500
 12
        7.91326
 22
       12.14862
 32
        8.63500
 13
        7.91326
 23
       12.14862
 33
       12.01500
999
02FFE:OFFICEXE:02FFE:OFFICEXE_PARTITION_2_0_0
  0
3DFACE
  8
02FFE_OFFICEXE
 62
 43
 10
        7.55838
 20
       -8.04238
 30
       12.01500
 11
        7.55838
 21
       -8.04238
 31
        8.63500
 12
       13.13301
 22
       -6.43877
 32
        8.63500
 13
       13.13301
 23
       -6.43877
 33
       12.01500
999
02FFE:OFFICEXE:02FFE:OFFICEXE_PARTITION_2_0_0_0_0_0_WIN
  0
3DFACE
  8
02FFE_OFFICEXE
 62
143
 10
        7.69274
 20
       -8.00373
 30
       11.59500
 11
        7.69274
 21
       -8.00373
 31
        8.77500
 12
       11.61373
 22
       -6.87581
 32
        8.77500
 13
       11.61373
 23
       -6.87581
 33
       11.59500
999
02FFE:OFFICEXE:02FFE:OFFICEXE_PARTITION_2_0_0_1_0_1_WIN
  0
3DFACE
  8
02FFE_OFFICEXE
 62
143
 10
       12.69969
 20
       -6.56342
 30
       11.59500
 11
       12.69969
 21
       -6.56342
 31
        8.77500
 12
       12.81337
 22
       -6.53072
 32
        8.77500
 13
       12.81337
 23
       -6.53072
 33
       11.59500
999
02FFE:OFFICEXE:02FFE:OFFICEXE_WALL_3_0_0
  0
3DFACE
  8
02FFE_OFFICEXE
 62
 43
 10
       13.13301
 20
       -6.43877
 30
       12.01500
 11
       13.13301
 21
       -6.43877
 31
        8.63500
 12
        8.21383
 22
       10.72726
 32
        8.63500
 13
        8.21383
 23
       10.72726
 33
       12.01500
999
02FFE:OFFICEXE:02FFE:OFFICEXE_WALL_3_0_0_0_0_0_WIN
  0
3DFACE
  8
02FFE_OFFICEXE
 62
143
 10
       12.72468
 20
       -5.01385
 30
       11.87500
 11
       12.72468
 21
       -5.01385
 31
        8.77500
 12
       12.19301
 22
       -3.15853
 32
        8.77500
 13
       12.19301
 23
       -3.15853
 33
       11.87500
999
02FFE:OFFICEXE:02FFE:OFFICEXE_WALL_3_0_0_1_0_1_WIN
  0
3DFACE
  8
02FFE_OFFICEXE
 62
143
 10
       11.74949
 20
       -1.61082
 30
       11.87500
 11
       11.74949
 21
       -1.61082
 31
        8.77500
 12
       11.49330
 22
       -0.71681
 32
        8.77500
 13
       11.49330
 23
       -0.71681
 33
       11.87500
999
02FFE:OFFICEXE:02FFE:OFFICEXE_WALL_3_0_0_2_0_2_WIN
  0
3DFACE
  8
02FFE_OFFICEXE
 62
143
 10
       11.18752
 20
        0.35024
 30
       11.87500
 11
       11.18752
 21
        0.35024
 31
        8.77500
 12
       11.06906
 22
        0.76361
 32
        8.77500
 13
       11.06906
 23
        0.76361
 33
       11.87500
999
02FFE:OFFICEXE:02FFE:OFFICEXE_WALL_3_0_0_3_0_3_WIN
  0
3DFACE
  8
02FFE_OFFICEXE
 62
143
 10
       10.76329
 20
        1.83066
 30
       11.87500
 11
       10.76329
 21
        1.83066
 31
        8.77500
 12
       10.36935
 22
        3.20533
 32
        8.77500
 13
       10.36935
 23
        3.20533
 33
       11.87500
999
02FFE:OFFICEXE:02FFE:OFFICEXE_WALL_3_0_0_4_0_4_WIN
  0
3DFACE
  8
02FFE_OFFICEXE
 62
143
 10
        9.79636
 20
        5.20485
 30
       11.87500
 11
        9.79636
 21
        5.20485
 31
        8.77500
 12
        9.40243
 22
        6.57952
 32
        8.77500
 13
        9.40243
 23
        6.57952
 33
       11.87500
999
02FFE:OFFICEXE:02FFE:OFFICEXE_WALL_3_0_0_5_0_5_WIN
  0
3DFACE
  8
02FFE_OFFICEXE
 62
143
 10
        9.23439
 20
        7.16592
 30
       11.87500
 11
        9.23439
 21
        7.16592
 31
        8.77500
 12
        9.11593
 22
        7.57928
 32
        8.77500
 13
        9.11593
 23
        7.57928
 33
       11.87500
999
02FFE:OFFICEXE:02FFE:OFFICEXE_WALL_3_0_0_6_0_6_WIN
  0
3DFACE
  8
02FFE_OFFICEXE
 62
143
 10
        8.81016
 20
        8.64633
 30
       11.87500
 11
        8.81016
 21
        8.64633
 31
        8.77500
 12
        8.69170
 22
        9.05969
 32
        8.77500
 13
        8.69170
 23
        9.05969
 33
       11.87500
999
02FFE:OFFICEXE:02FFE:OFFICEXE_WALL_4_0_0
  0
3DFACE
  8
02FFE_OFFICEXE
 62
 43
 10
        8.21383
 20
       10.72726
 30
       12.01500
 11
        8.21383
 21
       10.72726
 31
        8.63500
 12
        8.26304
 22
       12.13640
 32
        8.63500
 13
        8.26304
 23
       12.13640
 33
       12.01500
999
02FFE:OFFICEXE:02FFE:OFFICEXE_WALL_4_0_0_0_0_0_WIN
  0
3DFACE
  8
02FFE_OFFICEXE
 62
143
 10
        8.21530
 20
       10.76924
 30
       11.87300
 11
        8.21530
 21
       10.76924
 31
        8.77700
 12
        8.25809
 22
       11.99449
 32
        8.77700
 13
        8.25809
 23
       11.99449
 33
       11.87300
999
02FFE:OFFICEXE:02FFE:OFFICEXE_PARTITION_6_0_0
  0
3DFACE
  8
02FFE_OFFICEXE
 62
 43
 10
        7.91326
 20
       12.14862
 30
       12.01500
 11
        7.91326
 21
       12.14862
 31
        8.63500
 12
        2.58695
 22
       12.33462
 32
        8.63500
 13
        2.58695
 23
       12.33462
 33
       12.01500
999
02FFE:OFFICEXE:02FFE:OFFICEXE_PARTITION_7_0_0
  0
3DFACE
  8
02FFE_OFFICEXE
 62
 43
 10
        2.58695
 20
       12.33462
 30
       12.01500
 11
        2.58695
 21
       12.33462
 31
        8.63500
 12
        1.33771
 22
       12.37824
 32
        8.63500
 13
        1.33771
 23
       12.37824
 33
       12.01500
999
02FFE:OFFICEXE:02FFE:OFFICEXE_PARTITION_8_0_0
  0
3DFACE
  8
02FFE_OFFICEXE
 62
 43
 10
        1.33771
 20
       12.37824
 30
       12.01500
 11
        1.33771
 21
       12.37824
 31
        8.63500
 12
        0.94062
 22
        1.00703
 32
        8.63500
 13
        0.94062
 23
        1.00703
 33
       12.01500
999
02FFE:OFFICEXE:02FFE:OFFICEXE_PARTITION_9_0_0
  0
3DFACE
  8
02FFE_OFFICEXE
 62
 43
 10
        0.94062
 20
        1.00703
 30
       12.01500
 11
        0.94062
 21
        1.00703
 31
        8.63500
 12
        4.15480
 22
       -9.02146
 32
        8.63500
 13
        4.15480
 23
       -9.02146
 33
       12.01500
999
02FFE:OFFICEXE:02FFE:OFFICEXE_PARTITION_10_0_0
  0
3DFACE
  8
02FFE_OFFICEXE
 62
 43
 10
        4.15480
 20
       -9.02146
 30
       12.01500
 11
        4.15480
 21
       -9.02146
 31
        8.63500
 12
        7.55838
 22
       -8.04238
 32
        8.63500
 13
        7.55838
 23
       -8.04238
 33
       12.01500
999
02FFE:OFFICEXE:02FFE:OFFICEXE_PARTITION_10_0_0_0_0_0_DOOR
  0
3DFACE
  8
02FFE_OFFICEXE
 62
 45
 10
        6.26431
 20
       -8.41463
 30
       11.63300
 11
        6.26431
 21
       -8.41463
 31
        8.73700
 12
        7.26954
 22
       -8.12546
 32
        8.73700
 13
        7.26954
 23
       -8.12546
 33
       11.63300
999
02FFE:OFFICEXE:02FFE:OFFICEXE_PARTITION_10_0_0_1_0_1_WIN
  0
3DFACE
  8
02FFE_OFFICEXE
 62
143
 10
        7.31183
 20
       -8.11330
 30
       11.59300
 11
        7.31183
 21
       -8.11330
 31
        8.77700
 12
        7.42173
 22
       -8.08169
 32
        8.77700
 13
        7.42173
 23
       -8.08169
 33
       11.59300
999
02FFE:OFFICEXE:02FFE:OFFICEXE_PARTITION_10_0_0_2_0_2_WIN
  0
3DFACE
  8
02FFE_OFFICEXE
 62
143
 10
        4.29420
 20
       -8.98136
 30
       11.59300
 11
        4.29420
 21
       -8.98136
 31
        8.77700
 12
        6.22202
 22
       -8.42680
 32
        8.77700
 13
        6.22202
 23
       -8.42680
 33
       11.59300
999
02FFE:OFFICEXE:02FFE:OFFICEXE_FLOOR_0_0_0
  0
3DFACE
  8
02FFE_OFFICEXE
 62
  8
 10
        8.26304
 20
       12.13640
 30
        8.63500
 11
        8.21383
 21
       10.72726
 31
        8.63500
 12
        7.80545
 22
       12.15238
 32
        8.63500
 13
        7.80545
 23
       12.15238
 33
        8.63500
999
02FFE:OFFICEXE:02FFE:OFFICEXE_FLOOR_0_0_1
  0
3DFACE
  8
02FFE_OFFICEXE
 62
  8
 10
       13.13300
 20
       -6.43877
 30
        8.63500
 11
        4.15480
 21
       -9.02146
 31
        8.63500
 12
        0.94062
 22
        1.00703
 32
        8.63500
 13
        0.94062
 23
        1.00703
 33
        8.63500
  0
3DFACE
  8
02FFE_OFFICEXE
 62
  8
 10
       13.13300
 20
       -6.43877
 30
        8.63500
 11
        0.94062
 21
        1.00703
 31
        8.63500
 12
        1.33771
 22
       12.37824
 32
        8.63500
 13
        1.33771
 23
       12.37824
 33
        8.63500
  0
3DFACE
  8
02FFE_OFFICEXE
 62
  8
 10
       13.13300
 20
       -6.43877
 30
        8.63500
 11
        1.33771
 21
       12.37824
 31
        8.63500
 12
        7.80545
 22
       12.15238
 32
        8.63500
 13
        7.80545
 23
       12.15238
 33
        8.63500
999
02FFE:OFFICEXE:02FFE:OFFICEXE_CEILING_1_0_10006
  0
3DFACE
  8
02FFE_OFFICEXE
 62
 15
 10
        8.26304
 20
       12.13640
 30
       12.01500
 11
        7.80544
 21
       12.15238
 31
       12.01500
 12
        8.21383
 22
       10.72726
 32
       12.01500
 13
        8.21383
 23
       10.72726
 33
       12.01500
999
02FFE:OFFICEXE:02FFE:OFFICEXE_CEILING_1_0_10007
  0
3DFACE
  8
02FFE_OFFICEXE
 62
 15
 10
        7.80544
 20
       12.15238
 30
       12.01500
 11
        1.33771
 21
       12.37824
 31
       12.01500
 12
        0.94062
 22
        1.00703
 32
       12.01500
 13
        0.94062
 23
        1.00703
 33
       12.01500
  0
3DFACE
  8
02FFE_OFFICEXE
 62
 15
 10
        7.80544
 20
       12.15238
 30
       12.01500
 11
        0.94062
 21
        1.00703
 31
       12.01500
 12
        4.15480
 22
       -9.02146
 32
       12.01500
 13
        4.15480
 23
       -9.02146
 33
       12.01500
  0
3DFACE
  8
02FFE_OFFICEXE
 62
 15
 10
        7.80544
 20
       12.15238
 30
       12.01500
 11
        4.15480
 21
       -9.02146
 31
       12.01500
 12
       13.13301
 22
       -6.43877
 32
       12.01500
 13
       13.13301
 23
       -6.43877
 33
       12.01500
999
02FFE:OFFICEXMEETXSE:02FFE:OFFICEXMEETXSE_PARTITION_5_0_10026
  0
3DFACE
  8
02FFE_OFFICEXMEETXSE
 62
 43
 10
       13.13301
 20
       -6.43877
 30
       12.01500
 11
       13.13301
 21
       -6.43877
 31
        8.63500
 12
        7.55838
 22
       -8.04238
 32
        8.63500
 13
        7.55838
 23
       -8.04238
 33
       12.01500
999
02FFE:OFFICEXMEETXSE:02FFE:OFFICEXMEETXSE_PARTITION_5_0_0_0_0_0_WIN_10028
  0
3DFACE
  8
02FFE_OFFICEXMEETXSE
 62
143
 10
       11.61373
 20
       -6.87581
 30
       11.59500
 11
       11.61373
 21
       -6.87581
 31
        8.77500
 12
        7.69274
 22
       -8.00373
 32
        8.77500
 13
        7.69274
 23
       -8.00373
 33
       11.59500
999
02FFE:OFFICEXMEETXSE:02FFE:OFFICEXMEETXSE_PARTITION_5_0_0_1_0_1_WIN_10029
  0
3DFACE
  8
02FFE_OFFICEXMEETXSE
 62
143
 10
       12.81337
 20
       -6.53072
 30
       11.59500
 11
       12.81337
 21
       -6.53072
 31
        8.77500
 12
       12.69969
 22
       -6.56342
 32
        8.77500
 13
       12.69969
 23
       -6.56342
 33
       11.59500
999
02FFE:OFFICEXMEETXSE:02FFE:OFFICEXMEETXSE_PARTITION_2_0_0
  0
3DFACE
  8
02FFE_OFFICEXMEETXSE
 62
 43
 10
        7.55838
 20
       -8.04238
 30
       12.01500
 11
        7.55838
 21
       -8.04238
 31
        8.63500
 12
        8.45035
 22
      -11.16625
 32
        8.63500
 13
        8.45035
 23
      -11.16625
 33
       12.01500
999
02FFE:OFFICEXMEETXSE:02FFE:OFFICEXMEETXSE_WALL_4_0_0
  0
3DFACE
  8
02FFE_OFFICEXMEETXSE
 62
 43
 10
       14.02831
 20
       -9.56302
 30
       12.01500
 11
       14.02831
 21
       -9.56302
 31
        8.63500
 12
       13.13301
 22
       -6.43877
 32
        8.63500
 13
       13.13301
 23
       -6.43877
 33
       12.01500
999
02FFE:OFFICEXMEETXSE:02FFE:OFFICEXMEETXSE_WALL_4_0_0_0_0_0_WIN
  0
3DFACE
  8
02FFE_OFFICEXMEETXSE
 62
143
 10
       13.98636
 20
       -9.41664
 30
       11.87500
 11
       13.98636
 21
       -9.41664
 31
        8.77500
 12
       13.86791
 22
       -9.00328
 32
        8.77500
 13
       13.86791
 23
       -9.00328
 33
       11.87500
999
02FFE:OFFICEXMEETXSE:02FFE:OFFICEXMEETXSE_WALL_4_0_0_1_0_1_WIN
  0
3DFACE
  8
02FFE_OFFICEXMEETXSE
 62
143
 10
       13.56213
 20
       -7.93623
 30
       11.87500
 11
       13.56213
 21
       -7.93623
 31
        8.77500
 12
       13.16820
 22
       -6.56156
 32
        8.77500
 13
       13.16820
 23
       -6.56156
 33
       11.87500
999
02FFE:OFFICEXMEETXSE:02FFE:OFFICEXMEETXSE_FLOOR_0_0_0
  0
3DFACE
  8
02FFE_OFFICEXMEETXSE
 62
  8
 10
       14.02829
 20
       -9.56302
 30
        8.63500
 11
        8.45035
 21
      -11.16625
 31
        8.63500
 12
        7.55838
 22
       -8.04238
 32
        8.63500
 13
       13.13300
 23
       -6.43877
 33
        8.63500
999
02FFE:OFFICEXMEETXSE:02FFE:OFFICEXMEETXSE_CEILING_1_0_10008
  0
3DFACE
  8
02FFE_OFFICEXMEETXSE
 62
 15
 10
       13.13301
 20
       -6.43877
 30
       12.01500
 11
        7.55838
 21
       -8.04238
 31
       12.01500
 12
        8.45035
 22
      -11.16625
 32
       12.01500
 13
       14.02831
 23
       -9.56302
 33
       12.01500
999
02FFE:OFFICEXMEETXSSE:02FFE:OFFICEXMEETXSSE_PARTITION_4_0_10033
  0
3DFACE
  8
02FFE_OFFICEXMEETXSSE
 62
 43
 10
        7.55838
 20
       -8.04238
 30
       12.01500
 11
        7.55838
 21
       -8.04238
 31
        8.63500
 12
        4.15480
 22
       -9.02146
 32
        8.63500
 13
        4.15480
 23
       -9.02146
 33
       12.01500
999
02FFE:OFFICEXMEETXSSE:02FFE:OFFICEXMEETXSSE_PARTITION_4_0_0_0_0_0_DOOR_10035
  0
3DFACE
  8
02FFE_OFFICEXMEETXSSE
 62
 45
 10
        7.26954
 20
       -8.12546
 30
       11.63300
 11
        7.26954
 21
       -8.12546
 31
        8.73700
 12
        6.26431
 22
       -8.41463
 32
        8.73700
 13
        6.26431
 23
       -8.41463
 33
       11.63300
999
02FFE:OFFICEXMEETXSSE:02FFE:OFFICEXMEETXSSE_PARTITION_4_0_0_1_0_1_WIN_10036
  0
3DFACE
  8
02FFE_OFFICEXMEETXSSE
 62
143
 10
        7.42173
 20
       -8.08169
 30
       11.59300
 11
        7.42173
 21
       -8.08169
 31
        8.77700
 12
        7.31183
 22
       -8.11330
 32
        8.77700
 13
        7.31183
 23
       -8.11330
 33
       11.59300
999
02FFE:OFFICEXMEETXSSE:02FFE:OFFICEXMEETXSSE_PARTITION_4_0_0_2_0_2_WIN_10037
  0
3DFACE
  8
02FFE_OFFICEXMEETXSSE
 62
143
 10
        6.22202
 20
       -8.42680
 30
       11.59300
 11
        6.22202
 21
       -8.42680
 31
        8.77700
 12
        4.29420
 22
       -8.98136
 32
        8.77700
 13
        4.29420
 23
       -8.98136
 33
       11.59300
999
02FFE:OFFICEXMEETXSSE:02FFE:OFFICEXMEETXSSE_PARTITION_3_0_10038
  0
3DFACE
  8
02FFE_OFFICEXMEETXSSE
 62
 43
 10
        8.45035
 20
      -11.16625
 30
       12.01500
 11
        8.45035
 21
      -11.16625
 31
        8.63500
 12
        7.55838
 22
       -8.04238
 32
        8.63500
 13
        7.55838
 23
       -8.04238
 33
       12.01500
999
02FFE:OFFICEXMEETXSSE:02FFE:OFFICEXMEETXSSE_PARTITION_5_0_0
  0
3DFACE
  8
02FFE_OFFICEXMEETXSSE
 62
 43
 10
        4.15480
 20
       -9.02146
 30
       12.01500
 11
        4.15480
 21
       -9.02146
 31
        8.63500
 12
        5.14657
 22
      -12.11583
 32
        8.63500
 13
        5.14657
 23
      -12.11583
 33
       12.01500
999
02FFE:OFFICEXMEETXSSE:02FFE:OFFICEXMEETXSSE_FLOOR_0_0_0
  0
3DFACE
  8
02FFE_OFFICEXMEETXSSE
 62
  8
 10
        8.45035
 20
      -11.16625
 30
        8.63500
 11
        5.14657
 21
      -12.11583
 31
        8.63500
 12
        4.15480
 22
       -9.02146
 32
        8.63500
 13
        7.55838
 23
       -8.04238
 33
        8.63500
999
02FFE:OFFICEXMEETXSSE:02FFE:OFFICEXMEETXSSE_CEILING_1_0_10009
  0
3DFACE
  8
02FFE_OFFICEXMEETXSSE
 62
 15
 10
        7.55838
 20
       -8.04238
 30
       12.01500
 11
        4.15480
 21
       -9.02146
 31
       12.01500
 12
        5.14657
 22
      -12.11583
 32
       12.01500
 13
        8.45035
 23
      -11.16625
 33
       12.01500
999
02FFE:OFFICEXMEETXSSEXLED:02FFE:OFFICEXMEETXSSEXLED_WALL_2_0_0
  0
3DFACE
  8
02FFE_OFFICEXMEETXSSEXLED
 62
 43
 10
        5.52826
 20
      -13.30673
 30
       12.01500
 11
        5.52826
 21
      -13.30673
 31
        8.63500
 12
        8.79355
 22
      -12.36821
 32
        8.63500
 13
        8.79355
 23
      -12.36821
 33
       12.01500
999
02FFE:OFFICEXMEETXSSEXLED:02FFE:OFFICEXMEETXSSEXLED_WALL_2_0_0_0_0_0_WIN
  0
3DFACE
  8
02FFE_OFFICEXMEETXSSEXLED
 62
143
 10
        7.16325
 20
      -12.83680
 30
       11.87500
 11
        7.16325
 21
      -12.83680
 31
        8.77500
 12
        8.05706
 22
      -12.57990
 32
        8.77500
 13
        8.05706
 23
      -12.57990
 33
       11.87500
999
02FFE:OFFICEXMEETXSSEXLED:02FFE:OFFICEXMEETXSSEXLED_WALL_2_0_0_1_0_1_WIN
  0
3DFACE
  8
02FFE_OFFICEXMEETXSSEXLED
 62
143
 10
        5.65434
 20
      -13.27050
 30
       11.87500
 11
        5.65434
 21
      -13.27050
 31
        8.77500
 12
        6.23993
 22
      -13.10218
 32
        8.77500
 13
        6.23993
 23
      -13.10218
 33
       11.87500
999
02FFE:OFFICEXMEETXSSEXLED:02FFE:OFFICEXMEETXSSEXLED_PARTITION_3_0_0
  0
3DFACE
  8
02FFE_OFFICEXMEETXSSEXLED
 62
 43
 10
        8.79355
 20
      -12.36821
 30
       12.01500
 11
        8.79355
 21
      -12.36821
 31
        8.63500
 12
        8.45035
 22
      -11.16625
 32
        8.63500
 13
        8.45035
 23
      -11.16625
 33
       12.01500
999
02FFE:OFFICEXMEETXSSEXLED:02FFE:OFFICEXMEETXSSEXLED_PARTITION_5_0_0
  0
3DFACE
  8
02FFE_OFFICEXMEETXSSEXLED
 62
 43
 10
        5.14657
 20
      -12.11583
 30
       12.01500
 11
        5.14657
 21
      -12.11583
 31
        8.63500
 12
        5.52826
 22
      -13.30673
 32
        8.63500
 13
        5.52826
 23
      -13.30673
 33
       12.01500
999
02FFE:OFFICEXMEETXSSEXLED:02FFE:OFFICEXMEETXSSEXLED_FLOOR_0_0_0
  0
3DFACE
  8
02FFE_OFFICEXMEETXSSEXLED
 62
  8
 10
        8.79355
 20
      -12.36821
 30
        8.63500
 11
        5.52826
 21
      -13.30673
 31
        8.63500
 12
        5.14657
 22
      -12.11583
 32
        8.63500
 13
        8.45035
 23
      -11.16625
 33
        8.63500
999
02FFE:OFFICEXMEETXSSEXLED:02FFE:OFFICEXMEETXSSEXLED_CEILING_1_0_10010
  0
3DFACE
  8
02FFE_OFFICEXMEETXSSEXLED
 62
 15
 10
        8.45035
 20
      -11.16625
 30
       12.01500
 11
        5.14657
 21
      -12.11583
 31
       12.01500
 12
        5.52826
 22
      -13.30673
 32
       12.01500
 13
        8.79355
 23
      -12.36821
 33
       12.01500
999
02FFE:OFFICEXNE:02FFE:OFFICEXNE_PARTITION_2_0_10029
  0
3DFACE
  8
02FFE_OFFICEXNE
 62
 43
 10
        2.58695
 20
       12.33462
 30
       12.01500
 11
        2.58695
 21
       12.33462
 31
        8.63500
 12
        7.91326
 22
       12.14862
 32
        8.63500
 13
        7.91326
 23
       12.14862
 33
       12.01500
999
02FFE:OFFICEXNE:02FFE:OFFICEXNE_PARTITION_5_0_0
  0
3DFACE
  8
02FFE_OFFICEXNE
 62
 43
 10
        5.70947
 20
       19.67261
 30
       12.01500
 11
        5.70947
 21
       19.67261
 31
        8.63500
 12
        3.63656
 22
       13.98667
 32
        8.63500
 13
        3.63656
 23
       13.98667
 33
       12.01500
999
02FFE:OFFICEXNE:02FFE:OFFICEXNE_FLOOR_0_0_0
  0
3DFACE
  8
02FFE_OFFICEXNE
 62
  8
 10
        3.02865
 20
       12.31919
 30
        8.63500
 11
        2.58695
 21
       12.33462
 31
        8.63500
 12
        2.65711
 22
       14.34374
 32
        8.63500
 13
        3.63656
 23
       13.98667
 33
        8.63500
999
02FFE:OFFICEXNE:02FFE:OFFICEXNE_FLOOR_0_0_1
  0
3DFACE
  8
02FFE_OFFICEXNE
 62
  8
 10
        7.91326
 20
       12.14862
 30
        8.63500
 11
        3.02865
 21
       12.31919
 31
        8.63500
 12
        5.45258
 22
       18.96798
 32
        8.63500
 13
        8.11747
 23
       17.99645
 33
        8.63500
999
02FFE:OFFICEXNE:02FFE:OFFICEXNE_EXTFLOOR_0_1_0
  0
3DFACE
  8
02FFE_OFFICEXNE
 62
  8
 10
        8.11747
 20
       17.99645
 30
        8.63500
 11
        5.45258
 21
       18.96798
 31
        8.63500
 12
        5.70947
 22
       19.67261
 32
        8.63500
 13
        8.14499
 23
       18.78469
 33
        8.63500
999
02FFE:OFFICEXNE:02FFE:OFFICEXNE_CEILING_1_0_10011
  0
3DFACE
  8
02FFE_OFFICEXNE
 62
 15
 10
        3.63656
 20
       13.98667
 30
       12.01500
 11
        2.65711
 21
       14.34374
 31
       12.01500
 12
        2.58695
 22
       12.33462
 32
       12.01500
 13
        3.02865
 23
       12.31919
 33
       12.01500
999
02FFE:OFFICEXNE:02FFE:OFFICEXNE_CEILING_1_0_10012
  0
3DFACE
  8
02FFE_OFFICEXNE
 62
 15
 10
        8.14499
 20
       18.78469
 30
       12.01500
 11
        5.70947
 21
       19.67261
 31
       12.01500
 12
        3.02865
 22
       12.31919
 32
       12.01500
 13
        7.91326
 23
       12.14862
 33
       12.01500
999
02FFE:OFFICEXN:02FFE:OFFICEXN_PARTITION_6_0_10022
  0
3DFACE
  8
02FFE_OFFICEXN
 62
 43
 10
        5.70947
 20
       19.67261
 30
       12.01500
 11
        5.70947
 21
       19.67261
 31
        8.63500
 12
        6.13762
 22
       20.84700
 32
        8.63500
 13
        6.13762
 23
       20.84700
 33
       12.01500
999
02FFE:OFFICEXN:02FFE:OFFICEXN_PARTITION_2_0_10030
  0
3DFACE
  8
02FFE_OFFICEXN
 62
 43
 10
        1.33771
 20
       12.37824
 30
       12.01500
 11
        1.33771
 21
       12.37824
 31
        8.63500
 12
        2.58695
 22
       12.33462
 32
        8.63500
 13
        2.58695
 23
       12.33462
 33
       12.01500
999
02FFE:OFFICEXN:02FFE:OFFICEXN_PARTITION_5_0_10046
  0
3DFACE
  8
02FFE_OFFICEXN
 62
 43
 10
        3.63656
 20
       13.98667
 30
       12.01500
 11
        3.63656
 21
       13.98667
 31
        8.63500
 12
        5.70947
 22
       19.67261
 32
        8.63500
 13
        5.70947
 23
       19.67261
 33
       12.01500
999
02FFE:OFFICEXN:02FFE:OFFICEXN_WALL_7_0_0
  0
3DFACE
  8
02FFE_OFFICEXN
 62
 43
 10
        6.13762
 20
       20.84700
 30
       12.01500
 11
        6.13762
 21
       20.84700
 31
        8.63500
 12
       -5.98592
 22
       25.26686
 32
        8.63500
 13
       -5.98592
 23
       25.26686
 33
       12.01500
999
02FFE:OFFICEXN:02FFE:OFFICEXN_WALL_7_0_0_0_0_0_WIN
  0
3DFACE
  8
02FFE_OFFICEXN
 62
143
 10
       -3.99257
 20
       24.54015
 30
       11.87500
 11
       -3.99257
 21
       24.54015
 31
        8.77500
 12
       -5.27031
 22
       25.00597
 32
        8.77500
 13
       -5.27031
 23
       25.00597
 33
       11.87500
999
02FFE:OFFICEXN:02FFE:OFFICEXN_WALL_7_0_0_1_0_1_WIN
  0
3DFACE
  8
02FFE_OFFICEXN
 62
143
 10
        6.05118
 20
       20.87851
 30
       11.87300
 11
        6.05118
 21
       20.87851
 31
        8.77700
 12
        1.72953
 22
       22.45405
 32
        8.77700
 13
        1.72953
 23
       22.45405
 33
       11.87300
999
02FFE:OFFICEXN:02FFE:OFFICEXN_WALL_7_0_0_2_0_2_WIN
  0
3DFACE
  8
02FFE_OFFICEXN
 62
143
 10
        1.65061
 20
       22.48282
 30
       11.87300
 11
        1.65061
 21
       22.48282
 31
        8.77700
 12
       -3.39930
 22
       24.32386
 32
        8.77700
 13
       -3.39930
 23
       24.32386
 33
       11.87300
999
02FFE:OFFICEXN:02FFE:OFFICEXN_PARTITION_8_0_0
  0
3DFACE
  8
02FFE_OFFICEXN
 62
 43
 10
       -5.98592
 20
       25.26686
 30
       12.01500
 11
       -5.98592
 21
       25.26686
 31
        8.63500
 12
       -6.22647
 22
       18.37830
 32
        8.63500
 13
       -6.22647
 23
       18.37830
 33
       12.01500
999
02FFE:OFFICEXN:02FFE:OFFICEXN_PARTITION_9_0_0
  0
3DFACE
  8
02FFE_OFFICEXN
 62
 43
 10
       -6.22647
 20
       18.37830
 30
       12.01500
 11
       -6.22647
 21
       18.37830
 31
        8.63500
 12
       -3.76903
 22
       17.47553
 32
        8.63500
 13
       -3.76903
 23
       17.47553
 33
       12.01500
999
02FFE:OFFICEXN:02FFE:OFFICEXN_PARTITION_10_0_0
  0
3DFACE
  8
02FFE_OFFICEXN
 62
 43
 10
       -3.76903
 20
       17.47553
 30
       12.01500
 11
       -3.76903
 21
       17.47553
 31
        8.63500
 12
       -4.44982
 22
       15.62233
 32
        8.63500
 13
       -4.44982
 23
       15.62233
 33
       12.01500
999
02FFE:OFFICEXN:02FFE:OFFICEXN_PARTITION_11_0_0
  0
3DFACE
  8
02FFE_OFFICEXN
 62
 43
 10
       -4.44982
 20
       15.62233
 30
       12.01500
 11
       -4.44982
 21
       15.62233
 31
        8.63500
 12
        1.37626
 22
       13.48206
 32
        8.63500
 13
        1.37626
 23
       13.48206
 33
       12.01500
999
02FFE:OFFICEXN:02FFE:OFFICEXN_PARTITION_12_0_0
  0
3DFACE
  8
02FFE_OFFICEXN
 62
 43
 10
        1.37626
 20
       13.48206
 30
       12.01500
 11
        1.37626
 21
       13.48206
 31
        8.63500
 12
        1.33771
 22
       12.37824
 32
        8.63500
 13
        1.33771
 23
       12.37824
 33
       12.01500
999
02FFE:OFFICEXN:02FFE:OFFICEXN_FLOOR_0_0_0
  0
3DFACE
  8
02FFE_OFFICEXN
 62
  8
 10
        2.58695
 20
       12.33462
 30
        8.63500
 11
        1.33771
 21
       12.37824
 31
        8.63500
 12
        1.37626
 22
       13.48206
 32
        8.63500
 13
        2.61118
 23
       13.02840
 33
        8.63500
999
02FFE:OFFICEXN:02FFE:OFFICEXN_FLOOR_0_0_1
  0
3DFACE
  8
02FFE_OFFICEXN
 62
  8
 10
        3.63656
 20
       13.98667
 30
        8.63500
 11
        2.65711
 21
       14.34374
 31
        8.63500
 12
        2.68370
 22
       15.10506
 32
        8.63500
 13
        3.88359
 23
       14.66427
 33
        8.63500
999
02FFE:OFFICEXN:02FFE:OFFICEXN_FLOOR_0_0_2
  0
3DFACE
  8
02FFE_OFFICEXN
 62
  8
 10
        2.61118
 20
       13.02840
 30
        8.63500
 11
       -4.44982
 21
       15.62233
 31
        8.63500
 12
       -3.76903
 22
       17.47553
 32
        8.63500
 13
        2.68370
 23
       15.10506
 33
        8.63500
999
02FFE:OFFICEXN:02FFE:OFFICEXN_FLOOR_0_0_3
  0
3DFACE
  8
02FFE_OFFICEXN
 62
  8
 10
       -5.71146
 20
       23.03804
 30
        8.63500
 11
       -6.05932
 21
       23.16486
 31
        8.63500
 12
       -5.98592
 22
       25.26686
 32
        8.63500
 13
       -5.02643
 23
       24.91706
 33
        8.63500
999
02FFE:OFFICEXN:02FFE:OFFICEXN_FLOOR_0_0_4
  0
3DFACE
  8
02FFE_OFFICEXN
 62
  8
 10
        3.88359
 20
       14.66427
 30
        8.63500
 11
       -6.22647
 21
       18.37830
 31
        8.63500
 12
       -6.05932
 22
       23.16486
 32
        8.63500
 13
        5.45258
 23
       18.96798
 33
        8.63500
999
02FFE:OFFICEXN:02FFE:OFFICEXN_EXTFLOOR_0_1_0
  0
3DFACE
  8
02FFE_OFFICEXN
 62
  8
 10
        5.45258
 20
       18.96798
 30
        8.63500
 11
       -5.71146
 21
       23.03804
 31
        8.63500
 12
       -5.02643
 22
       24.91706
 32
        8.63500
 13
        6.13762
 23
       20.84700
 33
        8.63500
999
02FFE:OFFICEXN:02FFE:OFFICEXN_CEILING_1_0_10013
  0
3DFACE
  8
02FFE_OFFICEXN
 62
 15
 10
        2.61118
 20
       13.02840
 30
       12.01500
 11
        1.37626
 21
       13.48206
 31
       12.01500
 12
        1.33771
 22
       12.37824
 32
       12.01500
 13
        2.58695
 23
       12.33462
 33
       12.01500
999
02FFE:OFFICEXN:02FFE:OFFICEXN_CEILING_1_0_10014
  0
3DFACE
  8
02FFE_OFFICEXN
 62
 15
 10
        3.88359
 20
       14.66427
 30
       12.01500
 11
        2.68370
 21
       15.10506
 31
       12.01500
 12
        2.65711
 22
       14.34374
 32
       12.01500
 13
        3.63656
 23
       13.98667
 33
       12.01500
999
02FFE:OFFICEXN:02FFE:OFFICEXN_CEILING_1_0_10015
  0
3DFACE
  8
02FFE_OFFICEXN
 62
 15
 10
        2.68370
 20
       15.10506
 30
       12.01500
 11
       -3.76903
 21
       17.47553
 31
       12.01500
 12
       -4.44982
 22
       15.62233
 32
       12.01500
 13
        2.61118
 23
       13.02840
 33
       12.01500
999
02FFE:OFFICEXN:02FFE:OFFICEXN_CEILING_1_0_10016
  0
3DFACE
  8
02FFE_OFFICEXN
 62
 15
 10
        6.13762
 20
       20.84700
 30
       12.01500
 11
       -5.98592
 21
       25.26686
 31
       12.01500
 12
       -6.22647
 22
       18.37830
 32
       12.01500
 13
        3.88359
 23
       14.66427
 33
       12.01500
999
02FFE:OFFICEXMEETXSEXLED:02FFE:OFFICEXMEETXSEXLED_PARTITION_5_0_10042
  0
3DFACE
  8
02FFE_OFFICEXMEETXSEXLED
 62
 43
 10
        8.45035
 20
      -11.16625
 30
       12.01500
 11
        8.45035
 21
      -11.16625
 31
        8.63500
 12
        8.79355
 22
      -12.36821
 32
        8.63500
 13
        8.79355
 23
      -12.36821
 33
       12.01500
999
02FFE:OFFICEXMEETXSEXLED:02FFE:OFFICEXMEETXSEXLED_WALL_2_0_0
  0
3DFACE
  8
02FFE_OFFICEXMEETXSEXLED
 62
 43
 10
        8.79355
 20
      -12.36821
 30
       12.01500
 11
        8.79355
 21
      -12.36821
 31
        8.63500
 12
       14.37266
 22
      -10.76465
 32
        8.63500
 13
       14.37266
 23
      -10.76465
 33
       12.01500
999
02FFE:OFFICEXMEETXSEXLED:02FFE:OFFICEXMEETXSEXLED_WALL_2_0_0_0_0_0_WIN
  0
3DFACE
  8
02FFE_OFFICEXMEETXSEXLED
 62
143
 10
       11.52659
 20
      -11.58268
 30
       11.87500
 11
       11.52659
 21
      -11.58268
 31
        8.77500
 12
       11.93986
 22
      -11.46389
 32
        8.77500
 13
       11.93986
 23
      -11.46389
 33
       11.87500
999
02FFE:OFFICEXMEETXSEXLED:02FFE:OFFICEXMEETXSEXLED_WALL_2_0_0_1_0_1_WIN
  0
3DFACE
  8
02FFE_OFFICEXMEETXSEXLED
 62
143
 10
        9.60441
 20
      -12.13515
 30
       11.87500
 11
        9.60441
 21
      -12.13515
 31
        8.77500
 12
       10.97877
 22
      -11.74013
 32
        8.77500
 13
       10.97877
 23
      -11.74013
 33
       11.87500
999
02FFE:OFFICEXMEETXSEXLED:02FFE:OFFICEXMEETXSEXLED_WALL_3_0_0
  0
3DFACE
  8
02FFE_OFFICEXMEETXSEXLED
 62
 43
 10
       14.37266
 20
      -10.76465
 30
       12.01500
 11
       14.37266
 21
      -10.76465
 31
        8.63500
 12
       14.02831
 22
       -9.56302
 32
        8.63500
 13
       14.02831
 23
       -9.56302
 33
       12.01500
999
02FFE:OFFICEXMEETXSEXLED:02FFE:OFFICEXMEETXSEXLED_FLOOR_0_0_0
  0
3DFACE
  8
02FFE_OFFICEXMEETXSEXLED
 62
  8
 10
       14.37264
 20
      -10.76466
 30
        8.63500
 11
        8.79355
 21
      -12.36821
 31
        8.63500
 12
        8.45035
 22
      -11.16625
 32
        8.63500
 13
       14.02829
 23
       -9.56302
 33
        8.63500
999
02FFE:OFFICEXMEETXSEXLED:02FFE:OFFICEXMEETXSEXLED_CEILING_1_0_10017
  0
3DFACE
  8
02FFE_OFFICEXMEETXSEXLED
 62
 15
 10
       14.02831
 20
       -9.56302
 30
       12.01500
 11
        8.45035
 21
      -11.16625
 31
       12.01500
 12
        8.79355
 22
      -12.36821
 32
       12.01500
 13
       14.37266
 23
      -10.76465
 33
       12.01500
999
02FFE:OFFICEXNEXLED:DayRefPt:1
  0
CIRCLE
  8
02FFE_OFFICEXNEXLED
 62
 10
 10
        8.67291
 20
       15.34767
 30
        9.53500
 40
        0.20000
999
02FFE:OFFICEXE:DayRefPt:1
  0
CIRCLE
  8
02FFE_OFFICEXE
 62
 10
 10
        7.66678
 20
        1.00605
 30
        9.53500
 40
        0.20000
999
02FFE:OFFICEXMEETXSE:DayRefPt:1
  0
CIRCLE
  8
02FFE_OFFICEXMEETXSE
 62
 10
 10
       11.27560
 20
       -9.32019
 30
        9.53500
 40
        0.20000
999
02FFE:OFFICEXMEETXSSE:DayRefPt:1
  0
CIRCLE
  8
02FFE_OFFICEXMEETXSSE
 62
 10
 10
        6.78540
 20
      -10.59426
 30
        9.53500
 40
        0.20000
999
02FFE:OFFICEXMEETXSSEXLED:DayRefPt:1
  0
CIRCLE
  8
02FFE_OFFICEXMEETXSSEXLED
 62
 10
 10
        6.97781
 20
      -12.07588
 30
        9.53500
 40
        0.20000
999
02FFE:OFFICEXNE:DayRefPt:1
  0
CIRCLE
  8
02FFE_OFFICEXNE
 62
 10
 10
        6.08342
 20
       15.43610
 30
        9.53500
 40
        0.20000
999
02FFE:OFFICEXN:DayRefPt:1
  0
CIRCLE
  8
02FFE_OFFICEXN
 62
 10
 10
       -1.65132
 20
       20.19193
 30
        9.53500
 40
        0.20000
999
02FFE:OFFICEXMEETXSEXLED:DayRefPt:1
  0
CIRCLE
  8
02FFE_OFFICEXMEETXSEXLED
 62
 10
 10
       10.77871
 20
      -10.99887
 30
        9.53500
 40
        0.20000
999
02FFE:OFFICEXNEXLED:DEDayRefPt:1
  0
CIRCLE
  8
02FFE_OFFICEXNEXLED
 62
 10
 10
        8.67291
 20
       15.34767
 30
        9.53500
 40
        0.20000
999
02FFE:OFFICEXE:DEDayRefPt:1
  0
CIRCLE
  8
02FFE_OFFICEXE
 62
 10
 10
        7.66678
 20
        1.00605
 30
        9.53500
 40
        0.20000
999
02FFE:OFFICEXMEETXSE:DEDayRefPt:1
  0
CIRCLE
  8
02FFE_OFFICEXMEETXSE
 62
 10
 10
       11.27560
 20
       -9.32019
 30
        9.53500
 40
        0.20000
999
02FFE:OFFICEXMEETXSSE:DEDayRefPt:1
  0
CIRCLE
  8
02FFE_OFFICEXMEETXSSE
 62
 10
 10
        6.78540
 20
      -10.59426
 30
        9.53500
 40
        0.20000
999
02FFE:OFFICEXMEETXSSEXLED:DEDayRefPt:1
  0
CIRCLE
  8
02FFE_OFFICEXMEETXSSEXLED
 62
 10
 10
        6.97781
 20
      -12.07588
 30
        9.53500
 40
        0.20000
999
02FFE:OFFICEXNE:DEDayRefPt:1
  0
CIRCLE
  8
02FFE_OFFICEXNE
 62
 10
 10
        6.08342
 20
       15.43610
 30
        9.53500
 40
        0.20000
999
02FFE:OFFICEXN:DEDayRefPt:1
  0
CIRCLE
  8
02FFE_OFFICEXN
 62
 10
 10
       -1.65132
 20
       20.19193
 30
        9.53500
 40
        0.20000
999
02FFE:OFFICEXMEETXSEXLED:DEDayRefPt:1
  0
CIRCLE
  8
02FFE_OFFICEXMEETXSEXLED
 62
 10
 10
       10.77871
 20
      -10.99887
 30
        9.53500
 40
        0.20000
  0
ENDSEC
  0
EOF
